{
  "source": "C:\\Users\\Peter\\Desktop\\stuff\\MIUN\\quantitative_research\\video_compression\\videos\\UVG\\ReadySteadyGo_1920x1080_120fps_420_8bit_YUV.y4m",
  "output": "C:\\Users\\Peter\\Desktop\\stuff\\MIUN\\quantitative_research\\video_compression\\compressed_videos\\UVG\\hevc\\2.5\\ReadySteadyGo_1920x1080_120fps_420_8bit_YUV_hevc.mp4",
  "codec": "hevc",
  "ok": "[yuv4mpegpipe @ 000002c4f6ed6740] Stream #0: not enough frames to estimate rate; consider increasing probesize\nInput #0, yuv4mpegpipe, from 'C:\\Users\\Peter\\Desktop\\stuff\\MIUN\\quantitative_research\\video_compression\\videos\\UVG\\ReadySteadyGo_1920x1080_120fps_420_8bit_YUV.y4m':\n  Duration: 00:00:05.00, start: 0.000000, bitrate: 2985989 kb/s\n  Stream #0:0: Video: rawvideo (I420 / 0x30323449), yuv420p(progressive), 1920x1080, 120 fps, 120 tbr, 120 tbn\n[out#0/mp4 @ 000002c4f6ed9ac0] Codec AVOption b:a (set bitrate (in bits/s)) has not been used for any stream. The most likely reason is either wrong type (e.g. a video option with no video streams) or that it is a private option of some decoder which was not actually used for any stream.\nStream mapping:\n  Stream #0:0 -> #0:0 (rawvideo (native) -> hevc (libx265))\nPress [q] to stop, [?] for help\n[libx265 @ 000002c4f6edcb00] Unknown option: \"aq-mode.\nx265 [info]: HEVC encoder version 4.1+190-8f11c33ac\nx265 [info]: build info [Windows][GCC 15.1.0][64 bit] 10bit\nx265 [info]: using cpu capabilities: MMX2 SSE2Fast LZCNT SSSE3 SSE4.2 AVX FMA3 BMI2 AVX2\nx265 [info]: Main 10 profile, Level-5 (Main tier)\nx265 [info]: Thread pool created using 12 threads\nx265 [info]: Slices                              : 1\nx265 [info]: frame threads / pool features       : 3 / wpp(17 rows)\nx265 [info]: Coding QT: max CU size, min CU size : 64 / 8\nx265 [info]: Residual QT: max TU size, max depth : 32 / 1 inter / 1 intra\nx265 [info]: ME / range / subpel / merge         : star / 57 / 3 / 3\nx265 [info]: Keyframe min / max / scenecut / bias  : 25 / 250 / 40 / 5.00 \nx265 [info]: Lookahead / bframes / badapt        : 25 / 4 / 2\nx265 [info]: b-pyramid / weightp / weightb       : 1 / 1 / 0\nx265 [info]: References / ref-limit  cu / depth  : 4 / on / on\nx265 [info]: AQ: mode / str / qg-size / cu-tree  : 2 / 1.0 / 32 / 1\nx265 [info]: Rate Control / qCompress            : ABR-2500 kbps / 0.60\nx265 [info]: VBV/HRD buffer / max-rate / init    : 2500 / 2500 / 0.750\nx265 [info]: tools: rect limit-modes rd=4 psy-rd=2.00 rdoq=2 psy-rdoq=1.00\nx265 [info]: tools: rskip mode=1 signhide tmvp strong-intra-smoothing lslices=4\nx265 [info]: tools: deblock sao dhdr10-info\nOutput #0, mp4, to 'C:\\Users\\Peter\\Desktop\\stuff\\MIUN\\quantitative_research\\video_compression\\compressed_videos\\UVG\\hevc\\2.5\\ReadySteadyGo_1920x1080_120fps_420_8bit_YUV_hevc.mp4':\n  Metadata:\n    encoder         : Lavf62.3.100\n  Stream #0:0: Video: hevc (hev1 / 0x31766568), yuv420p10le(tv, progressive), 1920x1080, q=2-31, 2500 kb/s, 120 fps, 15360 tbn\n    Metadata:\n      encoder         : Lavc62.11.100 libx265\n    Side data:\n      cpb: bitrate max/min/avg: 2500000/0/2500000 buffer size: 2500000 vbv_delay: N/A\nframe=    0 fps=0.0 q=0.0 size=       0KiB time=N/A bitrate=N/A speed=N/A elapsed=0:00:00.51    \nframe=    0 fps=0.0 q=0.0 size=       0KiB time=N/A bitrate=N/A speed=N/A elapsed=0:00:01.03    \nframe=    0 fps=0.0 q=0.0 size=       0KiB time=N/A bitrate=N/A speed=N/A elapsed=0:00:01.55    \nframe=    0 fps=0.0 q=0.0 size=       0KiB time=N/A bitrate=N/A speed=N/A elapsed=0:00:02.05    \nframe=    1 fps=0.4 q=47.3 size=       0KiB time=-00:00:00.00 bitrate=N/A speed=N/A elapsed=0:00:02.58    \nframe=    3 fps=1.0 q=51.0 size=       0KiB time=00:00:00.00 bitrate=  42.2kbits/s speed=0.00269x elapsed=0:00:03.10    \nframe=    5 fps=1.4 q=51.0 size=       0KiB time=00:00:00.02 bitrate=  14.1kbits/s speed=0.00689x elapsed=0:00:03.62    \nframe=    7 fps=1.7 q=49.2 size=       0KiB time=00:00:00.04 bitrate=   8.4kbits/s speed=0.0101x elapsed=0:00:04.13    \nframe=    8 fps=1.7 q=49.1 size=       0KiB time=00:00:00.05 bitrate=   7.0kbits/s speed=0.0107x elapsed=0:00:04.66    \nframe=    9 fps=1.7 q=49.9 size=       0KiB time=00:00:00.05 bitrate=   6.0kbits/s speed=0.0113x elapsed=0:00:05.17    \nframe=   11 fps=1.9 q=49.5 size=       0KiB time=00:00:00.07 bitrate=   4.7kbits/s speed=0.0132x elapsed=0:00:05.68    \nframe=   13 fps=2.1 q=51.0 size=       0KiB time=00:00:00.09 bitrate=   3.8kbits/s speed=0.0148x elapsed=0:00:06.20    \nframe=   15 fps=2.2 q=49.8 size=       0KiB time=00:00:00.10 bitrate=   3.2kbits/s speed=0.0161x elapsed=0:00:06.72    \nframe=   16 fps=2.2 q=51.0 size=       0KiB time=00:00:00.11 bitrate=   3.0kbits/s speed=0.0161x elapsed=0:00:07.23    \nframe=   18 fps=2.3 q=48.0 size=       0KiB time=00:00:00.13 bitrate=   2.6kbits/s speed=0.0172x elapsed=0:00:07.75    \nframe=   20 fps=2.4 q=48.2 size=       0KiB time=00:00:00.15 bitrate=   2.3kbits/s speed=0.0182x elapsed=0:00:08.26    \nframe=   21 fps=2.4 q=48.4 size=       0KiB time=00:00:00.15 bitrate=   2.2kbits/s speed=0.018x elapsed=0:00:08.78    \nframe=   22 fps=2.4 q=49.0 size=       0KiB time=00:00:00.16 bitrate=   2.1kbits/s speed=0.0179x elapsed=0:00:09.29    \nframe=   24 fps=2.4 q=47.2 size=       0KiB time=00:00:00.18 bitrate=   1.9kbits/s speed=0.0187x elapsed=0:00:09.81    \nframe=   25 fps=2.4 q=49.0 size=       0KiB time=00:00:00.19 bitrate=   1.8kbits/s speed=0.0186x elapsed=0:00:10.33    \nframe=   26 fps=2.4 q=48.1 size=       0KiB time=00:00:00.20 bitrate=   1.8kbits/s speed=0.0184x elapsed=0:00:10.85    \nframe=   28 fps=2.5 q=46.3 size=       0KiB time=00:00:00.21 bitrate=   1.6kbits/s speed=0.0191x elapsed=0:00:11.36    \nframe=   30 fps=2.5 q=46.5 size=       0KiB time=00:00:00.23 bitrate=   1.5kbits/s speed=0.0197x elapsed=0:00:11.87    \nframe=   31 fps=2.5 q=46.2 size=       0KiB time=00:00:00.24 bitrate=   1.5kbits/s speed=0.0195x elapsed=0:00:12.39    \nframe=   33 fps=2.6 q=46.1 size=       0KiB time=00:00:00.25 bitrate=   1.4kbits/s speed=0.02x elapsed=0:00:12.90    \nframe=   35 fps=2.6 q=46.9 size=       0KiB time=00:00:00.27 bitrate=   1.3kbits/s speed=0.0205x elapsed=0:00:13.41    \nframe=   37 fps=2.7 q=45.4 size=       0KiB time=00:00:00.29 bitrate=   1.2kbits/s speed=0.0209x elapsed=0:00:13.94    \nframe=   38 fps=2.6 q=46.0 size=       0KiB time=00:00:00.30 bitrate=   1.2kbits/s speed=0.0208x elapsed=0:00:14.45    \nframe=   39 fps=2.6 q=46.1 size=       0KiB time=00:00:00.30 bitrate=   1.1kbits/s speed=0.0206x elapsed=0:00:14.97    \nframe=   41 fps=2.6 q=45.6 size=       0KiB time=00:00:00.32 bitrate=   1.1kbits/s speed=0.021x elapsed=0:00:15.49    \nframe=   42 fps=2.6 q=46.1 size=       0KiB time=00:00:00.33 bitrate=   1.1kbits/s speed=0.0208x elapsed=0:00:15.99    \nframe=   43 fps=2.6 q=45.4 size=       0KiB time=00:00:00.34 bitrate=   1.0kbits/s speed=0.0207x elapsed=0:00:16.51    \nframe=   45 fps=2.6 q=39.2 size=       0KiB time=00:00:00.35 bitrate=   1.0kbits/s speed=0.021x elapsed=0:00:17.03    \nframe=   46 fps=2.6 q=44.3 size=       0KiB time=00:00:00.36 bitrate=   1.0kbits/s speed=0.0209x elapsed=0:00:17.55    \nframe=   47 fps=2.6 q=45.0 size=       0KiB time=00:00:00.37 bitrate=   0.9kbits/s speed=0.0208x elapsed=0:00:18.06    \nframe=   49 fps=2.6 q=38.9 size=       0KiB time=00:00:00.39 bitrate=   0.9kbits/s speed=0.0211x elapsed=0:00:18.58    \nframe=   51 fps=2.7 q=45.0 size=       0KiB time=00:00:00.40 bitrate=   0.9kbits/s speed=0.0214x elapsed=0:00:19.10    \nframe=   52 fps=2.6 q=44.3 size=       0KiB time=00:00:00.41 bitrate=   0.8kbits/s speed=0.0212x elapsed=0:00:19.62    \nframe=   53 fps=2.6 q=44.1 size=       0KiB time=00:00:00.42 bitrate=   0.8kbits/s speed=0.0211x elapsed=0:00:20.13    \nframe=   55 fps=2.7 q=43.7 size=       0KiB time=00:00:00.44 bitrate=   0.8kbits/s speed=0.0214x elapsed=0:00:20.66    \nframe=   57 fps=2.7 q=44.9 size=       0KiB time=00:00:00.45 bitrate=   0.8kbits/s speed=0.0216x elapsed=0:00:21.17    \nframe=   57 fps=2.6 q=44.9 size=       0KiB time=00:00:00.45 bitrate=   0.8kbits/s speed=0.0211x elapsed=0:00:21.69    \nframe=   60 fps=2.7 q=44.9 size=       0KiB time=00:00:00.48 bitrate=   0.7kbits/s speed=0.0218x elapsed=0:00:22.20    \nframe=   61 fps=2.7 q=45.0 size=       0KiB time=00:00:00.49 bitrate=   0.7kbits/s speed=0.0216x elapsed=0:00:22.72    \nframe=   62 fps=2.7 q=44.9 size=       0KiB time=00:00:00.50 bitrate=   0.7kbits/s speed=0.0215x elapsed=0:00:23.23    \nframe=   64 fps=2.7 q=43.8 size=       0KiB time=00:00:00.51 bitrate=   0.7kbits/s speed=0.0217x elapsed=0:00:23.75    \nframe=   65 fps=2.7 q=45.0 size=       0KiB time=00:00:00.52 bitrate=   0.7kbits/s speed=0.0216x elapsed=0:00:24.26    \nframe=   67 fps=2.7 q=38.3 size=       0KiB time=00:00:00.54 bitrate=   0.6kbits/s speed=0.0219x elapsed=0:00:24.78    \nframe=   69 fps=2.7 q=44.9 size=       0KiB time=00:00:00.55 bitrate=   0.6kbits/s speed=0.0221x elapsed=0:00:25.29    \nframe=   70 fps=2.7 q=44.9 size=       0KiB time=00:00:00.56 bitrate=   0.6kbits/s speed=0.022x elapsed=0:00:25.81    \nframe=   72 fps=2.7 q=38.9 size=       0KiB time=00:00:00.58 bitrate=   0.6kbits/s speed=0.0222x elapsed=0:00:26.33    \nframe=   73 fps=2.7 q=43.1 size=       0KiB time=00:00:00.59 bitrate=   0.6kbits/s speed=0.022x elapsed=0:00:26.85    \nframe=   75 fps=2.7 q=45.0 size=       0KiB time=00:00:00.60 bitrate=   0.6kbits/s speed=0.0222x elapsed=0:00:27.36    \nframe=   77 fps=2.8 q=41.7 size=       0KiB time=00:00:00.62 bitrate=   0.6kbits/s speed=0.0224x elapsed=0:00:27.88    \nframe=   79 fps=2.8 q=44.8 size=       0KiB time=00:00:00.64 bitrate=   0.5kbits/s speed=0.0226x elapsed=0:00:28.41    \nframe=   80 fps=2.8 q=45.2 size=       0KiB time=00:00:00.65 bitrate=   0.5kbits/s speed=0.0225x elapsed=0:00:28.94    \nframe=   81 fps=2.7 q=40.0 size=       0KiB time=00:00:00.65 bitrate=   0.5kbits/s speed=0.0223x elapsed=0:00:29.46    \nframe=   83 fps=2.8 q=45.1 size=       0KiB time=00:00:00.67 bitrate=   0.5kbits/s speed=0.0225x elapsed=0:00:29.97    \nframe=   84 fps=2.8 q=45.1 size=       0KiB time=00:00:00.68 bitrate=   0.5kbits/s speed=0.0224x elapsed=0:00:30.48    \nframe=   86 fps=2.8 q=44.0 size=       0KiB time=00:00:00.70 bitrate=   0.5kbits/s speed=0.0226x elapsed=0:00:30.99    \nframe=   88 fps=2.8 q=45.7 size=       0KiB time=00:00:00.71 bitrate=   0.5kbits/s speed=0.0227x elapsed=0:00:31.52    \nframe=   89 fps=2.8 q=39.4 size=       0KiB time=00:00:00.72 bitrate=   0.5kbits/s speed=0.0226x elapsed=0:00:32.03    \nframe=   90 fps=2.8 q=43.6 size=       0KiB time=00:00:00.73 bitrate=   0.5kbits/s speed=0.0225x elapsed=0:00:32.54    \nframe=   92 fps=2.8 q=45.0 size=       0KiB time=00:00:00.75 bitrate=   0.5kbits/s speed=0.0227x elapsed=0:00:33.06    \nframe=   93 fps=2.8 q=39.0 size=       0KiB time=00:00:00.75 bitrate=   0.5kbits/s speed=0.0226x elapsed=0:00:33.58    \nframe=   95 fps=2.8 q=45.7 size=       0KiB time=00:00:00.77 bitrate=   0.5kbits/s speed=0.0227x elapsed=0:00:34.09    \nframe=   96 fps=2.8 q=45.1 size=       0KiB time=00:00:00.78 bitrate=   0.4kbits/s speed=0.0226x elapsed=0:00:34.61    \nframe=   98 fps=2.8 q=39.9 size=       0KiB time=00:00:00.80 bitrate=   0.4kbits/s speed=0.0228x elapsed=0:00:35.12    \nframe=   99 fps=2.8 q=44.0 size=       0KiB time=00:00:00.80 bitrate=   0.4kbits/s speed=0.0227x elapsed=0:00:35.64    \nframe=  101 fps=2.8 q=45.9 size=       0KiB time=00:00:00.82 bitrate=   0.4kbits/s speed=0.0228x elapsed=0:00:36.15    \nframe=  102 fps=2.8 q=40.3 size=       0KiB time=00:00:00.83 bitrate=   0.4kbits/s speed=0.0227x elapsed=0:00:36.67    \nframe=  103 fps=2.8 q=44.6 size=       0KiB time=00:00:00.84 bitrate=   0.4kbits/s speed=0.0226x elapsed=0:00:37.19    \nframe=  104 fps=2.8 q=45.9 size=       0KiB time=00:00:00.85 bitrate=   0.4kbits/s speed=0.0225x elapsed=0:00:37.70    \nframe=  106 fps=2.8 q=45.9 size=       0KiB time=00:00:00.86 bitrate=   0.4kbits/s speed=0.0227x elapsed=0:00:38.22    \nframe=  108 fps=2.8 q=44.2 size=     256KiB time=00:00:00.88 bitrate=2374.5kbits/s speed=0.0228x elapsed=0:00:38.74    \nframe=  108 fps=2.8 q=44.2 size=     256KiB time=00:00:00.88 bitrate=2374.5kbits/s speed=0.0225x elapsed=0:00:39.25    \nframe=  109 fps=2.7 q=46.0 size=     256KiB time=00:00:00.89 bitrate=2352.3kbits/s speed=0.0224x elapsed=0:00:39.77    \nframe=  111 fps=2.8 q=40.2 size=     256KiB time=00:00:00.90 bitrate=2309.2kbits/s speed=0.0225x elapsed=0:00:40.28    \nframe=  112 fps=2.7 q=45.1 size=     256KiB time=00:00:00.91 bitrate=2288.2kbits/s speed=0.0225x elapsed=0:00:40.80    \nframe=  114 fps=2.8 q=47.0 size=     256KiB time=00:00:00.93 bitrate=2247.3kbits/s speed=0.0226x elapsed=0:00:41.30    \nframe=  115 fps=2.7 q=40.6 size=     256KiB time=00:00:00.94 bitrate=2227.4kbits/s speed=0.0225x elapsed=0:00:41.83    \nframe=  117 fps=2.8 q=46.8 size=     256KiB time=00:00:00.95 bitrate=2188.7kbits/s speed=0.0226x elapsed=0:00:42.35    \nframe=  118 fps=2.8 q=46.8 size=     256KiB time=00:00:00.96 bitrate=2169.8kbits/s speed=0.0225x elapsed=0:00:42.87    \nframe=  120 fps=2.8 q=45.4 size=     256KiB time=00:00:00.98 bitrate=2133.1kbits/s speed=0.0227x elapsed=0:00:43.38    \nframe=  121 fps=2.8 q=46.7 size=     256KiB time=00:00:00.99 bitrate=2115.1kbits/s speed=0.0226x elapsed=0:00:43.91    \nframe=  123 fps=2.8 q=45.1 size=     256KiB time=00:00:01.00 bitrate=2080.2kbits/s speed=0.0227x elapsed=0:00:44.42    \nframe=  124 fps=2.8 q=46.8 size=     256KiB time=00:00:01.01 bitrate=2063.1kbits/s speed=0.0226x elapsed=0:00:44.93    \nframe=  125 fps=2.8 q=46.8 size=     256KiB time=00:00:01.02 bitrate=2046.3kbits/s speed=0.0226x elapsed=0:00:45.45    \nframe=  127 fps=2.8 q=45.6 size=     256KiB time=00:00:01.04 bitrate=2013.6kbits/s speed=0.0227x elapsed=0:00:45.96    \nframe=  128 fps=2.8 q=46.6 size=     256KiB time=00:00:01.05 bitrate=1997.6kbits/s speed=0.0226x elapsed=0:00:46.48    \nframe=  130 fps=2.8 q=46.7 size=     256KiB time=00:00:01.06 bitrate=1966.4kbits/s speed=0.0227x elapsed=0:00:47.00    \nframe=  131 fps=2.8 q=40.0 size=     256KiB time=00:00:01.07 bitrate=1951.2kbits/s speed=0.0226x elapsed=0:00:47.52    \nframe=  133 fps=2.8 q=46.8 size=     256KiB time=00:00:01.09 bitrate=1921.4kbits/s speed=0.0227x elapsed=0:00:48.04    \nframe=  134 fps=2.8 q=46.8 size=     256KiB time=00:00:01.10 bitrate=1906.8kbits/s speed=0.0226x elapsed=0:00:48.57    \nframe=  136 fps=2.8 q=45.1 size=     256KiB time=00:00:01.11 bitrate=1878.4kbits/s speed=0.0227x elapsed=0:00:49.09    \nframe=  137 fps=2.8 q=46.9 size=     256KiB time=00:00:01.12 bitrate=1864.4kbits/s speed=0.0227x elapsed=0:00:49.61    \nframe=  139 fps=2.8 q=41.3 size=     256KiB time=00:00:01.14 bitrate=1837.2kbits/s speed=0.0228x elapsed=0:00:50.12    \nframe=  140 fps=2.8 q=45.2 size=     256KiB time=00:00:01.15 bitrate=1823.9kbits/s speed=0.0227x elapsed=0:00:50.63    \nframe=  141 fps=2.8 q=46.8 size=     256KiB time=00:00:01.15 bitrate=1810.8kbits/s speed=0.0226x elapsed=0:00:51.15    \nframe=  143 fps=2.8 q=45.0 size=     256KiB time=00:00:01.17 bitrate=1785.1kbits/s speed=0.0227x elapsed=0:00:51.66    \nframe=  144 fps=2.8 q=46.8 size=     256KiB time=00:00:01.18 bitrate=1772.5kbits/s speed=0.0227x elapsed=0:00:52.18    \nframe=  146 fps=2.8 q=45.1 size=     256KiB time=00:00:01.20 bitrate=1747.9kbits/s speed=0.0228x elapsed=0:00:52.71    \nframe=  147 fps=2.8 q=46.9 size=     256KiB time=00:00:01.20 bitrate=1735.9kbits/s speed=0.0227x elapsed=0:00:53.21    \nframe=  148 fps=2.8 q=46.8 size=     256KiB time=00:00:01.21 bitrate=1724.0kbits/s speed=0.0226x elapsed=0:00:53.73    \nframe=  150 fps=2.8 q=45.0 size=     256KiB time=00:00:01.23 bitrate=1700.7kbits/s speed=0.0227x elapsed=0:00:54.24    \nframe=  151 fps=2.8 q=47.0 size=     256KiB time=00:00:01.24 bitrate=1689.3kbits/s speed=0.0227x elapsed=0:00:54.77    \nframe=  153 fps=2.8 q=41.2 size=     256KiB time=00:00:01.25 bitrate=1678.0kbits/s speed=0.0226x elapsed=0:00:55.27    \nframe=  154 fps=2.8 q=45.2 size=     256KiB time=00:00:01.26 bitrate=1655.9kbits/s speed=0.0227x elapsed=0:00:55.80    \nframe=  155 fps=2.8 q=46.8 size=     256KiB time=00:00:01.27 bitrate=1645.1kbits/s speed=0.0226x elapsed=0:00:56.32    \nframe=  156 fps=2.7 q=46.9 size=     256KiB time=00:00:01.28 bitrate=1634.4kbits/s speed=0.0226x elapsed=0:00:56.84    \nframe=  158 fps=2.8 q=45.0 size=     256KiB time=00:00:01.30 bitrate=1613.5kbits/s speed=0.0227x elapsed=0:00:57.35    \nframe=  159 fps=2.7 q=46.9 size=     256KiB time=00:00:01.30 bitrate=1603.2kbits/s speed=0.0226x elapsed=0:00:57.87    \nframe=  160 fps=2.7 q=46.8 size=     256KiB time=00:00:01.31 bitrate=1593.0kbits/s speed=0.0226x elapsed=0:00:58.38    \nframe=  162 fps=2.8 q=45.1 size=     256KiB time=00:00:01.33 bitrate=1573.1kbits/s speed=0.0226x elapsed=0:00:58.90    \nframe=  163 fps=2.7 q=46.8 size=     256KiB time=00:00:01.34 bitrate=1563.4kbits/s speed=0.0226x elapsed=0:00:59.42    \nframe=  164 fps=2.7 q=46.9 size=     256KiB time=00:00:01.35 bitrate=1553.7kbits/s speed=0.0225x elapsed=0:00:59.93    \nframe=  166 fps=2.7 q=45.1 size=     256KiB time=00:00:01.36 bitrate=1534.8kbits/s speed=0.0226x elapsed=0:01:00.45    \nframe=  167 fps=2.7 q=46.9 size=     256KiB time=00:00:01.37 bitrate=1525.5kbits/s speed=0.0225x elapsed=0:01:00.97    \nframe=  168 fps=2.7 q=41.0 size=     256KiB time=00:00:01.38 bitrate=1516.3kbits/s speed=0.0225x elapsed=0:01:01.51    \nframe=  169 fps=2.7 q=45.5 size=     256KiB time=00:00:01.39 bitrate=1507.2kbits/s speed=0.0224x elapsed=0:01:02.03    \nframe=  171 fps=2.7 q=42.0 size=     256KiB time=00:00:01.40 bitrate=1489.4kbits/s speed=0.0225x elapsed=0:01:02.54    \nframe=  172 fps=2.7 q=45.3 size=     256KiB time=00:00:01.41 bitrate=1480.6kbits/s speed=0.0225x elapsed=0:01:03.06    \nframe=  173 fps=2.7 q=46.8 size=     256KiB time=00:00:01.42 bitrate=1471.9kbits/s speed=0.0224x elapsed=0:01:03.57    \nframe=  175 fps=2.7 q=41.8 size=     256KiB time=00:00:01.44 bitrate=1454.9kbits/s speed=0.0225x elapsed=0:01:04.08    \nframe=  176 fps=2.7 q=45.1 size=     256KiB time=00:00:01.45 bitrate=1446.6kbits/s speed=0.0224x elapsed=0:01:04.61    \nframe=  177 fps=2.7 q=46.9 size=     256KiB time=00:00:01.45 bitrate=1438.3kbits/s speed=0.0224x elapsed=0:01:05.13    \nframe=  179 fps=2.7 q=41.3 size=     256KiB time=00:00:01.47 bitrate=1422.0kbits/s speed=0.0225x elapsed=0:01:05.64    \nframe=  180 fps=2.7 q=45.1 size=     256KiB time=00:00:01.48 bitrate=1414.0kbits/s speed=0.0224x elapsed=0:01:06.15    \nframe=  181 fps=2.7 q=46.9 size=     256KiB time=00:00:01.49 bitrate=1406.1kbits/s speed=0.0224x elapsed=0:01:06.67    \nframe=  183 fps=2.7 q=41.3 size=     256KiB time=00:00:01.50 bitrate=1390.6kbits/s speed=0.0224x elapsed=0:01:07.19    \nframe=  184 fps=2.7 q=45.2 size=     256KiB time=00:00:01.51 bitrate=1383.0kbits/s speed=0.0224x elapsed=0:01:07.70    \nframe=  185 fps=2.7 q=47.5 size=     256KiB time=00:00:01.52 bitrate=1375.4kbits/s speed=0.0224x elapsed=0:01:08.22    \nframe=  186 fps=2.7 q=47.5 size=     256KiB time=00:00:01.53 bitrate=1367.9kbits/s speed=0.0223x elapsed=0:01:08.73    \nframe=  188 fps=2.7 q=45.1 size=     256KiB time=00:00:01.55 bitrate=1353.2kbits/s speed=0.0224x elapsed=0:01:09.25    \nframe=  189 fps=2.7 q=47.7 size=     256KiB time=00:00:01.55 bitrate=1346.0kbits/s speed=0.0223x elapsed=0:01:09.76    \nframe=  189 fps=2.7 q=47.7 size=     256KiB time=00:00:01.55 bitrate=1346.0kbits/s speed=0.0222x elapsed=0:01:10.28    \nframe=  191 fps=2.7 q=41.8 size=     256KiB time=00:00:01.57 bitrate=1331.7kbits/s speed=0.0222x elapsed=0:01:10.79    \nframe=  192 fps=2.7 q=45.7 size=     256KiB time=00:00:01.58 bitrate=1324.7kbits/s speed=0.0222x elapsed=0:01:11.30    \nframe=  193 fps=2.7 q=47.6 size=     256KiB time=00:00:01.59 bitrate=1317.8kbits/s speed=0.0222x elapsed=0:01:11.83    \nframe=  194 fps=2.7 q=47.5 size=     256KiB time=00:00:01.60 bitrate=1310.9kbits/s speed=0.0221x elapsed=0:01:12.34    \nframe=  196 fps=2.7 q=45.8 size=     256KiB time=00:00:01.61 bitrate=1297.4kbits/s speed=0.0222x elapsed=0:01:12.85    \nframe=  196 fps=2.7 q=45.8 size=     256KiB time=00:00:01.61 bitrate=1297.4kbits/s speed=0.022x elapsed=0:01:13.38    \nframe=  197 fps=2.7 q=47.8 size=     256KiB time=00:00:01.62 bitrate=1290.8kbits/s speed=0.022x elapsed=0:01:13.88    \nframe=  199 fps=2.7 q=42.2 size=     512KiB time=00:00:01.64 bitrate=2555.1kbits/s speed=0.0221x elapsed=0:01:14.41    \nframe=  200 fps=2.7 q=45.9 size=     512KiB time=00:00:01.65 bitrate=2542.2kbits/s speed=0.022x elapsed=0:01:14.91    \nframe=  201 fps=2.7 q=47.8 size=     512KiB time=00:00:01.65 bitrate=2529.4kbits/s speed=0.022x elapsed=0:01:15.45    \nframe=  203 fps=2.7 q=42.6 size=     512KiB time=00:00:01.67 bitrate=2504.3kbits/s speed=0.022x elapsed=0:01:15.97    \nframe=  204 fps=2.7 q=46.0 size=     512KiB time=00:00:01.68 bitrate=2491.9kbits/s speed=0.022x elapsed=0:01:16.47    \nframe=  205 fps=2.7 q=47.6 size=     512KiB time=00:00:01.69 bitrate=2479.6kbits/s speed=0.022x elapsed=0:01:17.00    \nframe=  206 fps=2.7 q=42.0 size=     512KiB time=00:00:01.70 bitrate=2467.4kbits/s speed=0.0219x elapsed=0:01:17.52    \nframe=  207 fps=2.7 q=46.0 size=     512KiB time=00:00:01.70 bitrate=2455.4kbits/s speed=0.0219x elapsed=0:01:18.02    \nframe=  208 fps=2.6 q=47.8 size=     512KiB time=00:00:01.71 bitrate=2443.5kbits/s speed=0.0219x elapsed=0:01:18.54    \nframe=  210 fps=2.7 q=43.1 size=     512KiB time=00:00:01.73 bitrate=2420.0kbits/s speed=0.0219x elapsed=0:01:19.06    \nframe=  211 fps=2.7 q=45.9 size=     512KiB time=00:00:01.74 bitrate=2408.4kbits/s speed=0.0219x elapsed=0:01:19.57    \nframe=  212 fps=2.6 q=47.9 size=     512KiB time=00:00:01.75 bitrate=2396.9kbits/s speed=0.0219x elapsed=0:01:20.08    \nframe=  214 fps=2.7 q=46.0 size=     512KiB time=00:00:01.76 bitrate=2374.3kbits/s speed=0.0219x elapsed=0:01:20.61    \nframe=  215 fps=2.7 q=47.7 size=     512KiB time=00:00:01.77 bitrate=2363.2kbits/s speed=0.0219x elapsed=0:01:21.12    \nframe=  216 fps=2.6 q=48.0 size=     512KiB time=00:00:01.78 bitrate=2352.1kbits/s speed=0.0218x elapsed=0:01:21.63    \nframe=  217 fps=2.6 q=42.4 size=     512KiB time=00:00:01.79 bitrate=2341.2kbits/s speed=0.0218x elapsed=0:01:22.16    \nframe=  218 fps=2.6 q=46.0 size=     512KiB time=00:00:01.80 bitrate=2330.4kbits/s speed=0.0218x elapsed=0:01:22.67    \nframe=  219 fps=2.6 q=47.8 size=     512KiB time=00:00:01.80 bitrate=2319.6kbits/s speed=0.0217x elapsed=0:01:23.19    \nframe=  221 fps=2.6 q=43.5 size=     512KiB time=00:00:01.82 bitrate=2298.4kbits/s speed=0.0218x elapsed=0:01:23.71    \nframe=  222 fps=2.6 q=46.0 size=     512KiB time=00:00:01.83 bitrate=2288.0kbits/s speed=0.0218x elapsed=0:01:24.23    \nframe=  223 fps=2.6 q=48.0 size=     512KiB time=00:00:01.84 bitrate=2277.6kbits/s speed=0.0217x elapsed=0:01:24.74    \nframe=  224 fps=2.6 q=47.7 size=     512KiB time=00:00:01.85 bitrate=2267.4kbits/s speed=0.0217x elapsed=0:01:25.25    \nframe=  226 fps=2.6 q=46.1 size=     512KiB time=00:00:01.86 bitrate=2247.1kbits/s speed=0.0218x elapsed=0:01:25.78    \nframe=  227 fps=2.6 q=47.8 size=     512KiB time=00:00:01.87 bitrate=2237.1kbits/s speed=0.0217x elapsed=0:01:26.30    \nframe=  228 fps=2.6 q=47.9 size=     512KiB time=00:00:01.88 bitrate=2227.3kbits/s speed=0.0217x elapsed=0:01:26.81    \nframe=  229 fps=2.6 q=42.7 size=     512KiB time=00:00:01.89 bitrate=2217.4kbits/s speed=0.0217x elapsed=0:01:27.32    \nframe=  230 fps=2.6 q=46.2 size=     512KiB time=00:00:01.90 bitrate=2207.7kbits/s speed=0.0216x elapsed=0:01:27.84    \nframe=  231 fps=2.6 q=48.6 size=     512KiB time=00:00:01.90 bitrate=2198.1kbits/s speed=0.0216x elapsed=0:01:28.35    \nframe=  232 fps=2.6 q=48.4 size=     512KiB time=00:00:01.91 bitrate=2188.5kbits/s speed=0.0216x elapsed=0:01:28.87    \nframe=  234 fps=2.6 q=46.1 size=     512KiB time=00:00:01.93 bitrate=2169.7kbits/s speed=0.0216x elapsed=0:01:29.38    \nframe=  235 fps=2.6 q=48.5 size=     512KiB time=00:00:01.94 bitrate=2160.3kbits/s speed=0.0216x elapsed=0:01:29.90    \nframe=  236 fps=2.6 q=48.7 size=     512KiB time=00:00:01.95 bitrate=2151.1kbits/s speed=0.0216x elapsed=0:01:30.42    \nframe=  237 fps=2.6 q=42.8 size=     512KiB time=00:00:01.95 bitrate=2142.0kbits/s speed=0.0215x elapsed=0:01:30.93    \nframe=  238 fps=2.6 q=46.1 size=     512KiB time=00:00:01.96 bitrate=2132.9kbits/s speed=0.0215x elapsed=0:01:31.45    \nframe=  240 fps=2.6 q=48.7 size=     512KiB time=00:00:01.98 bitrate=2115.0kbits/s speed=0.0216x elapsed=0:01:31.96    \nframe=  241 fps=2.6 q=43.6 size=     512KiB time=00:00:01.99 bitrate=2106.1kbits/s speed=0.0215x elapsed=0:01:32.48    \nframe=  242 fps=2.6 q=46.7 size=     512KiB time=00:00:02.00 bitrate=2097.3kbits/s speed=0.0215x elapsed=0:01:32.99    \nframe=  243 fps=2.6 q=48.6 size=     512KiB time=00:00:02.00 bitrate=2088.6kbits/s speed=0.0215x elapsed=0:01:33.52    \nframe=  244 fps=2.6 q=48.7 size=     512KiB time=00:00:02.01 bitrate=2080.0kbits/s speed=0.0214x elapsed=0:01:34.04    \nframe=  245 fps=2.6 q=41.9 size=     512KiB time=00:00:02.02 bitrate=2071.4kbits/s speed=0.0214x elapsed=0:01:34.56    \nframe=  245 fps=2.6 q=41.9 size=     512KiB time=00:00:02.02 bitrate=2071.4kbits/s speed=0.0213x elapsed=0:01:35.08    \nframe=  246 fps=2.6 q=46.7 size=     512KiB time=00:00:02.03 bitrate=2062.9kbits/s speed=0.0213x elapsed=0:01:35.60    \nframe=  246 fps=2.6 q=46.7 size=     512KiB time=00:00:02.03 bitrate=2062.9kbits/s speed=0.0212x elapsed=0:01:36.11    \nframe=  248 fps=2.6 q=48.6 size=     512KiB time=00:00:02.05 bitrate=2046.2kbits/s speed=0.0212x elapsed=0:01:36.64    \nframe=  248 fps=2.6 q=48.6 size=     512KiB time=00:00:02.05 bitrate=2046.2kbits/s speed=0.0211x elapsed=0:01:37.14    \nframe=  249 fps=2.5 q=40.4 size=     512KiB time=00:00:02.05 bitrate=2037.9kbits/s speed=0.0211x elapsed=0:01:37.68    \nframe=  250 fps=2.5 q=46.0 size=     512KiB time=00:00:02.06 bitrate=2029.7kbits/s speed=0.021x elapsed=0:01:38.20    \nframe=  250 fps=2.5 q=46.0 size=     512KiB time=00:00:02.06 bitrate=2029.7kbits/s speed=0.0209x elapsed=0:01:38.72    \nframe=  252 fps=2.5 q=43.5 size=     512KiB time=00:00:02.08 bitrate=2013.4kbits/s speed=0.021x elapsed=0:01:39.23    \nframe=  253 fps=2.5 q=46.2 size=     512KiB time=00:00:02.09 bitrate=2005.4kbits/s speed=0.021x elapsed=0:01:39.76    \nframe=  254 fps=2.5 q=47.7 size=     512KiB time=00:00:02.10 bitrate=1997.5kbits/s speed=0.0209x elapsed=0:01:40.27    \nframe=  254 fps=2.5 q=47.7 size=     512KiB time=00:00:02.10 bitrate=1997.5kbits/s speed=0.0208x elapsed=0:01:40.79    \nframe=  254 fps=2.5 q=47.7 size=     512KiB time=00:00:02.10 bitrate=1997.5kbits/s speed=0.0207x elapsed=0:01:41.30    \nframe=  255 fps=2.5 q=43.7 size=     512KiB time=00:00:02.10 bitrate=1989.6kbits/s speed=0.0207x elapsed=0:01:41.82    \nframe=  255 fps=2.5 q=43.7 size=     512KiB time=00:00:02.10 bitrate=1989.6kbits/s speed=0.0206x elapsed=0:01:42.35    \nframe=  257 fps=2.5 q=47.7 size=     512KiB time=00:00:02.12 bitrate=1974.0kbits/s speed=0.0207x elapsed=0:01:42.86    \nframe=  258 fps=2.5 q=47.7 size=     512KiB time=00:00:02.13 bitrate=1966.2kbits/s speed=0.0206x elapsed=0:01:43.37    \nframe=  259 fps=2.5 q=41.2 size=     512KiB time=00:00:02.14 bitrate=1958.6kbits/s speed=0.0206x elapsed=0:01:43.89    \nframe=  259 fps=2.5 q=41.2 size=     512KiB time=00:00:02.14 bitrate=1958.6kbits/s speed=0.0205x elapsed=0:01:44.40    \nframe=  259 fps=2.5 q=41.2 size=     512KiB time=00:00:02.14 bitrate=1958.6kbits/s speed=0.0204x elapsed=0:01:44.94    \nframe=  260 fps=2.5 q=46.2 size=     512KiB time=00:00:02.15 bitrate=1951.0kbits/s speed=0.0204x elapsed=0:01:45.45    \nframe=  260 fps=2.5 q=46.2 size=     512KiB time=00:00:02.15 bitrate=1951.0kbits/s speed=0.0203x elapsed=0:01:45.97    \nframe=  261 fps=2.5 q=47.7 size=     512KiB time=00:00:02.15 bitrate=1943.5kbits/s speed=0.0203x elapsed=0:01:46.50    \nframe=  263 fps=2.5 q=47.8 size=     512KiB time=00:00:02.17 bitrate=1928.6kbits/s speed=0.0203x elapsed=0:01:47.02    \nframe=  263 fps=2.4 q=47.8 size=     512KiB time=00:00:02.17 bitrate=1928.6kbits/s speed=0.0202x elapsed=0:01:47.53    \nframe=  263 fps=2.4 q=47.8 size=     512KiB time=00:00:02.17 bitrate=1928.6kbits/s speed=0.0201x elapsed=0:01:48.07    \nframe=  264 fps=2.4 q=41.8 size=     512KiB time=00:00:02.18 bitrate=1921.2kbits/s speed=0.0201x elapsed=0:01:48.59    \nframe=  264 fps=2.4 q=41.8 size=     512KiB time=00:00:02.18 bitrate=1921.2kbits/s speed=0.02x elapsed=0:01:49.10    \nframe=  264 fps=2.4 q=41.8 size=     512KiB time=00:00:02.18 bitrate=1921.2kbits/s speed=0.0199x elapsed=0:01:49.63    \nframe=  265 fps=2.4 q=47.2 size=     512KiB time=00:00:02.19 bitrate=1913.9kbits/s speed=0.0199x elapsed=0:01:50.16    \nframe=  265 fps=2.4 q=47.2 size=     512KiB time=00:00:02.19 bitrate=1913.9kbits/s speed=0.0198x elapsed=0:01:50.69    \nframe=  267 fps=2.4 q=48.9 size=     512KiB time=00:00:02.20 bitrate=1899.5kbits/s speed=0.0199x elapsed=0:01:51.20    \nframe=  268 fps=2.4 q=43.5 size=     512KiB time=00:00:02.21 bitrate=1892.3kbits/s speed=0.0198x elapsed=0:01:51.72    \nframe=  268 fps=2.4 q=43.5 size=     512KiB time=00:00:02.21 bitrate=1892.3kbits/s speed=0.0197x elapsed=0:01:52.25    \nframe=  269 fps=2.4 q=47.3 size=     512KiB time=00:00:02.22 bitrate=1885.2kbits/s speed=0.0197x elapsed=0:01:52.78    \nframe=  269 fps=2.4 q=47.3 size=     512KiB time=00:00:02.22 bitrate=1885.2kbits/s speed=0.0196x elapsed=0:01:53.30    \nframe=  271 fps=2.4 q=41.7 size=     512KiB time=00:00:02.24 bitrate=1871.2kbits/s speed=0.0197x elapsed=0:01:53.81    \nframe=  271 fps=2.4 q=41.7 size=     512KiB time=00:00:02.24 bitrate=1871.2kbits/s speed=0.0196x elapsed=0:01:54.33    \nframe=  271 fps=2.4 q=41.7 size=     512KiB time=00:00:02.24 bitrate=1871.2kbits/s speed=0.0195x elapsed=0:01:54.84    \nframe=  272 fps=2.4 q=47.0 size=     512KiB time=00:00:02.25 bitrate=1864.3kbits/s speed=0.0195x elapsed=0:01:55.36    \nframe=  272 fps=2.3 q=47.0 size=     512KiB time=00:00:02.25 bitrate=1864.3kbits/s speed=0.0194x elapsed=0:01:55.88    \nframe=  274 fps=2.4 q=41.0 size=     512KiB time=00:00:02.26 bitrate=1850.6kbits/s speed=0.0195x elapsed=0:01:56.40    \nframe=  274 fps=2.3 q=41.0 size=     512KiB time=00:00:02.26 bitrate=1850.6kbits/s speed=0.0194x elapsed=0:01:56.93    \nframe=  275 fps=2.3 q=48.0 size=     512KiB time=00:00:02.27 bitrate=1843.8kbits/s speed=0.0194x elapsed=0:01:57.45    \nframe=  275 fps=2.3 q=48.0 size=     512KiB time=00:00:02.27 bitrate=1843.8kbits/s speed=0.0193x elapsed=0:01:57.98    \nframe=  277 fps=2.3 q=48.8 size=     512KiB time=00:00:02.29 bitrate=1830.4kbits/s speed=0.0193x elapsed=0:01:58.50    \nframe=  277 fps=2.3 q=48.8 size=     512KiB time=00:00:02.29 bitrate=1830.4kbits/s speed=0.0193x elapsed=0:01:59.01    \nframe=  277 fps=2.3 q=48.8 size=     512KiB time=00:00:02.29 bitrate=1830.4kbits/s speed=0.0192x elapsed=0:01:59.52    \nframe=  278 fps=2.3 q=42.0 size=     512KiB time=00:00:02.30 bitrate=1823.8kbits/s speed=0.0192x elapsed=0:02:00.04    \nframe=  278 fps=2.3 q=42.0 size=     512KiB time=00:00:02.30 bitrate=1823.8kbits/s speed=0.0191x elapsed=0:02:00.56    \nframe=  279 fps=2.3 q=48.1 size=     768KiB time=00:00:02.30 bitrate=2725.7kbits/s speed=0.0191x elapsed=0:02:01.07    \nframe=  280 fps=2.3 q=48.8 size=     768KiB time=00:00:02.31 bitrate=2715.9kbits/s speed=0.0191x elapsed=0:02:01.59    \nframe=  281 fps=2.3 q=42.3 size=     768KiB time=00:00:02.32 bitrate=2706.2kbits/s speed=0.019x elapsed=0:02:02.13    \nframe=  282 fps=2.3 q=48.8 size=     768KiB time=00:00:02.33 bitrate=2696.5kbits/s speed=0.019x elapsed=0:02:02.64    \nframe=  282 fps=2.3 q=48.8 size=     768KiB time=00:00:02.33 bitrate=2696.5kbits/s speed=0.0189x elapsed=0:02:03.16    \nframe=  283 fps=2.3 q=42.6 size=     768KiB time=00:00:02.34 bitrate=2686.9kbits/s speed=0.0189x elapsed=0:02:03.68    \nframe=  283 fps=2.3 q=42.6 size=     768KiB time=00:00:02.34 bitrate=2686.9kbits/s speed=0.0189x elapsed=0:02:04.19    \nframe=  284 fps=2.3 q=48.8 size=     768KiB time=00:00:02.35 bitrate=2677.4kbits/s speed=0.0188x elapsed=0:02:04.71    \nframe=  285 fps=2.3 q=49.8 size=     768KiB time=00:00:02.35 bitrate=2667.9kbits/s speed=0.0188x elapsed=0:02:05.23    \nframe=  285 fps=2.3 q=49.8 size=     768KiB time=00:00:02.35 bitrate=2667.9kbits/s speed=0.0188x elapsed=0:02:05.74    \nframe=  286 fps=2.3 q=42.3 size=     768KiB time=00:00:02.36 bitrate=2658.5kbits/s speed=0.0187x elapsed=0:02:06.26    \nframe=  287 fps=2.3 q=48.1 size=     768KiB time=00:00:02.37 bitrate=2649.2kbits/s speed=0.0187x elapsed=0:02:06.77    \nframe=  287 fps=2.3 q=48.1 size=     768KiB time=00:00:02.37 bitrate=2649.2kbits/s speed=0.0187x elapsed=0:02:07.29    \nframe=  289 fps=2.3 q=49.7 size=     768KiB time=00:00:02.39 bitrate=2630.7kbits/s speed=0.0187x elapsed=0:02:07.82    \nframe=  290 fps=2.3 q=49.7 size=     768KiB time=00:00:02.40 bitrate=2621.6kbits/s speed=0.0187x elapsed=0:02:08.34    \nframe=  290 fps=2.3 q=49.7 size=     768KiB time=00:00:02.40 bitrate=2621.6kbits/s speed=0.0186x elapsed=0:02:08.86    \nframe=  290 fps=2.2 q=49.7 size=     768KiB time=00:00:02.40 bitrate=2621.6kbits/s speed=0.0185x elapsed=0:02:09.38    \nframe=  291 fps=2.2 q=42.1 size=     768KiB time=00:00:02.40 bitrate=2612.5kbits/s speed=0.0185x elapsed=0:02:09.90    \nframe=  292 fps=2.2 q=49.4 size=     768KiB time=00:00:02.41 bitrate=2603.5kbits/s speed=0.0185x elapsed=0:02:10.42    \nframe=  293 fps=2.2 q=49.7 size=     768KiB time=00:00:02.42 bitrate=2594.6kbits/s speed=0.0185x elapsed=0:02:10.94    \nframe=  293 fps=2.2 q=49.7 size=     768KiB time=00:00:02.42 bitrate=2594.6kbits/s speed=0.0184x elapsed=0:02:11.47    \nframe=  294 fps=2.2 q=42.3 size=     768KiB time=00:00:02.43 bitrate=2585.7kbits/s speed=0.0184x elapsed=0:02:11.98    \nframe=  295 fps=2.2 q=48.8 size=     768KiB time=00:00:02.44 bitrate=2576.8kbits/s speed=0.0184x elapsed=0:02:12.49    \nframe=  296 fps=2.2 q=49.9 size=     768KiB time=00:00:02.45 bitrate=2568.1kbits/s speed=0.0184x elapsed=0:02:13.02    \nframe=  297 fps=2.2 q=49.9 size=     768KiB time=00:00:02.45 bitrate=2559.4kbits/s speed=0.0184x elapsed=0:02:13.54    \nframe=  297 fps=2.2 q=49.9 size=     768KiB time=00:00:02.45 bitrate=2559.4kbits/s speed=0.0183x elapsed=0:02:14.05    \nframe=  298 fps=2.2 q=43.1 size=     768KiB time=00:00:02.46 bitrate=2550.7kbits/s speed=0.0183x elapsed=0:02:14.58    \nframe=  299 fps=2.2 q=49.0 size=     768KiB time=00:00:02.47 bitrate=2542.1kbits/s speed=0.0183x elapsed=0:02:15.11    \nframe=  300 fps=2.2 q=49.7 size=     768KiB time=00:00:02.48 bitrate=2533.6kbits/s speed=0.0183x elapsed=0:02:15.62    \nframe=  301 fps=2.2 q=42.9 size=     768KiB time=00:00:02.48 bitrate=2533.6kbits/s speed=0.0182x elapsed=0:02:16.13    \nframe=  302 fps=2.2 q=49.0 size=     768KiB time=00:00:02.50 bitrate=2516.7kbits/s speed=0.0183x elapsed=0:02:16.66    \nframe=  302 fps=2.2 q=49.0 size=     768KiB time=00:00:02.50 bitrate=2516.7kbits/s speed=0.0182x elapsed=0:02:17.17    \nframe=  303 fps=2.2 q=42.3 size=     768KiB time=00:00:02.50 bitrate=2508.4kbits/s speed=0.0182x elapsed=0:02:17.70    \nframe=  303 fps=2.2 q=42.3 size=     768KiB time=00:00:02.50 bitrate=2508.4kbits/s speed=0.0181x elapsed=0:02:18.23    \nframe=  304 fps=2.2 q=48.4 size=     768KiB time=00:00:02.51 bitrate=2500.1kbits/s speed=0.0181x elapsed=0:02:18.75    \nframe=  305 fps=2.2 q=49.8 size=     768KiB time=00:00:02.52 bitrate=2491.8kbits/s speed=0.0181x elapsed=0:02:19.29    \nframe=  306 fps=2.2 q=41.8 size=     768KiB time=00:00:02.53 bitrate=2483.6kbits/s speed=0.0181x elapsed=0:02:19.80    \nframe=  306 fps=2.2 q=41.8 size=     768KiB time=00:00:02.53 bitrate=2483.6kbits/s speed=0.0181x elapsed=0:02:20.33    \nframe=  307 fps=2.2 q=49.0 size=     768KiB time=00:00:02.54 bitrate=2475.5kbits/s speed=0.018x elapsed=0:02:20.84    \nframe=  309 fps=2.2 q=49.8 size=     768KiB time=00:00:02.55 bitrate=2459.3kbits/s speed=0.0181x elapsed=0:02:21.36    \nframe=  309 fps=2.2 q=49.8 size=     768KiB time=00:00:02.55 bitrate=2459.3kbits/s speed=0.018x elapsed=0:02:21.87    \nframe=  309 fps=2.2 q=49.8 size=     768KiB time=00:00:02.55 bitrate=2459.3kbits/s speed=0.018x elapsed=0:02:22.39    \nframe=  310 fps=2.2 q=41.9 size=     768KiB time=00:00:02.56 bitrate=2451.4kbits/s speed=0.018x elapsed=0:02:22.90    \nframe=  311 fps=2.2 q=48.4 size=     768KiB time=00:00:02.57 bitrate=2443.4kbits/s speed=0.018x elapsed=0:02:23.42    \nframe=  311 fps=2.2 q=48.4 size=     768KiB time=00:00:02.57 bitrate=2443.4kbits/s speed=0.0179x elapsed=0:02:23.95    \nframe=  313 fps=2.2 q=50.7 size=     768KiB time=00:00:02.59 bitrate=2427.7kbits/s speed=0.0179x elapsed=0:02:24.47    \nframe=  313 fps=2.2 q=50.7 size=     768KiB time=00:00:02.59 bitrate=2427.7kbits/s speed=0.0179x elapsed=0:02:24.99    \nframe=  313 fps=2.2 q=50.7 size=     768KiB time=00:00:02.59 bitrate=2427.7kbits/s speed=0.0178x elapsed=0:02:25.49    \nframe=  314 fps=2.2 q=41.7 size=     768KiB time=00:00:02.60 bitrate=2419.9kbits/s speed=0.0178x elapsed=0:02:26.02    \nframe=  315 fps=2.1 q=48.4 size=     768KiB time=00:00:02.60 bitrate=2412.2kbits/s speed=0.0178x elapsed=0:02:26.54    \nframe=  315 fps=2.1 q=48.4 size=     768KiB time=00:00:02.60 bitrate=2412.2kbits/s speed=0.0177x elapsed=0:02:27.06    \nframe=  318 fps=2.2 q=42.5 size=     768KiB time=00:00:02.63 bitrate=2389.3kbits/s speed=0.0178x elapsed=0:02:27.57    \nframe=  318 fps=2.1 q=42.5 size=     768KiB time=00:00:02.63 bitrate=2389.3kbits/s speed=0.0178x elapsed=0:02:28.09    \nframe=  318 fps=2.1 q=42.5 size=     768KiB time=00:00:02.63 bitrate=2389.3kbits/s speed=0.0177x elapsed=0:02:28.60    \nframe=  319 fps=2.1 q=49.0 size=     768KiB time=00:00:02.64 bitrate=2381.8kbits/s speed=0.0177x elapsed=0:02:29.13    \nframe=  319 fps=2.1 q=49.0 size=     768KiB time=00:00:02.64 bitrate=2381.8kbits/s speed=0.0177x elapsed=0:02:29.66    \nframe=  319 fps=2.1 q=49.0 size=     768KiB time=00:00:02.64 bitrate=2381.8kbits/s speed=0.0176x elapsed=0:02:30.18    \nframe=  320 fps=2.1 q=50.7 size=     768KiB time=00:00:02.65 bitrate=2374.3kbits/s speed=0.0176x elapsed=0:02:30.70    \nframe=  321 fps=2.1 q=50.6 size=     768KiB time=00:00:02.65 bitrate=2366.8kbits/s speed=0.0176x elapsed=0:02:31.24    \nframe=  321 fps=2.1 q=50.6 size=     768KiB time=00:00:02.65 bitrate=2366.8kbits/s speed=0.0175x elapsed=0:02:31.76    \nframe=  322 fps=2.1 q=42.0 size=     768KiB time=00:00:02.66 bitrate=2359.4kbits/s speed=0.0175x elapsed=0:02:32.28    \nframe=  322 fps=2.1 q=42.0 size=     768KiB time=00:00:02.66 bitrate=2359.4kbits/s speed=0.0175x elapsed=0:02:32.81    \nframe=  323 fps=2.1 q=48.5 size=     768KiB time=00:00:02.67 bitrate=2352.1kbits/s speed=0.0174x elapsed=0:02:33.36    \nframe=  324 fps=2.1 q=50.7 size=     768KiB time=00:00:02.68 bitrate=2344.8kbits/s speed=0.0174x elapsed=0:02:33.87    \nframe=  324 fps=2.1 q=50.7 size=     768KiB time=00:00:02.68 bitrate=2344.8kbits/s speed=0.0174x elapsed=0:02:34.39    \nframe=  324 fps=2.1 q=50.7 size=     768KiB time=00:00:02.68 bitrate=2344.8kbits/s speed=0.0173x elapsed=0:02:34.90    \nframe=  325 fps=2.1 q=42.9 size=     768KiB time=00:00:02.69 bitrate=2337.5kbits/s speed=0.0173x elapsed=0:02:35.42    \nframe=  326 fps=2.1 q=49.1 size=     768KiB time=00:00:02.70 bitrate=2330.3kbits/s speed=0.0173x elapsed=0:02:35.96    \nframe=  326 fps=2.1 q=49.1 size=     768KiB time=00:00:02.70 bitrate=2330.3kbits/s speed=0.0173x elapsed=0:02:36.48    \nframe=  328 fps=2.1 q=50.8 size=     768KiB time=00:00:02.71 bitrate=2316.0kbits/s speed=0.0173x elapsed=0:02:36.99    \nframe=  328 fps=2.1 q=50.8 size=     768KiB time=00:00:02.71 bitrate=2316.0kbits/s speed=0.0172x elapsed=0:02:37.51    \nframe=  329 fps=2.1 q=41.3 size=     768KiB time=00:00:02.72 bitrate=2308.9kbits/s speed=0.0172x elapsed=0:02:38.02    \nframe=  330 fps=2.1 q=48.3 size=     768KiB time=00:00:02.73 bitrate=2301.9kbits/s speed=0.0172x elapsed=0:02:38.54    \nframe=  331 fps=2.1 q=50.8 size=     768KiB time=00:00:02.74 bitrate=2294.9kbits/s speed=0.0172x elapsed=0:02:39.07    \nframe=  332 fps=2.1 q=49.9 size=     768KiB time=00:00:02.75 bitrate=2287.9kbits/s speed=0.0172x elapsed=0:02:39.59    \nframe=  333 fps=2.1 q=41.7 size=     768KiB time=00:00:02.75 bitrate=2281.0kbits/s speed=0.0172x elapsed=0:02:40.11    \nframe=  334 fps=2.1 q=49.3 size=     768KiB time=00:00:02.76 bitrate=2274.1kbits/s speed=0.0172x elapsed=0:02:40.62    \nframe=  335 fps=2.1 q=50.8 size=     768KiB time=00:00:02.77 bitrate=2267.3kbits/s speed=0.0172x elapsed=0:02:41.13    \nframe=  336 fps=2.1 q=41.6 size=     768KiB time=00:00:02.78 bitrate=2260.5kbits/s speed=0.0172x elapsed=0:02:41.65    \nframe=  336 fps=2.1 q=41.6 size=     768KiB time=00:00:02.78 bitrate=2260.5kbits/s speed=0.0172x elapsed=0:02:42.16    \nframe=  337 fps=2.1 q=48.4 size=     768KiB time=00:00:02.79 bitrate=2253.8kbits/s speed=0.0172x elapsed=0:02:42.70    \nframe=  338 fps=2.1 q=50.8 size=     768KiB time=00:00:02.80 bitrate=2247.1kbits/s speed=0.0172x elapsed=0:02:43.24    \nframe=  339 fps=2.1 q=50.6 size=     768KiB time=00:00:02.80 bitrate=2240.4kbits/s speed=0.0171x elapsed=0:02:43.76    \nframe=  340 fps=2.1 q=41.7 size=     768KiB time=00:00:02.81 bitrate=2233.8kbits/s speed=0.0171x elapsed=0:02:44.27    \nframe=  341 fps=2.1 q=48.9 size=     768KiB time=00:00:02.82 bitrate=2227.2kbits/s speed=0.0171x elapsed=0:02:44.79    \nframe=  342 fps=2.1 q=50.8 size=     768KiB time=00:00:02.83 bitrate=2220.6kbits/s speed=0.0171x elapsed=0:02:45.31    \nframe=  343 fps=2.1 q=50.9 size=     768KiB time=00:00:02.84 bitrate=2214.1kbits/s speed=0.0171x elapsed=0:02:45.83    \nframe=  343 fps=2.1 q=50.9 size=     768KiB time=00:00:02.84 bitrate=2214.1kbits/s speed=0.0171x elapsed=0:02:46.34    \nframe=  344 fps=2.1 q=41.8 size=     768KiB time=00:00:02.85 bitrate=2207.7kbits/s speed=0.0171x elapsed=0:02:46.87    \nframe=  344 fps=2.1 q=41.8 size=     768KiB time=00:00:02.85 bitrate=2207.7kbits/s speed=0.017x elapsed=0:02:47.38    \nframe=  346 fps=2.1 q=50.6 size=     768KiB time=00:00:02.86 bitrate=2194.8kbits/s speed=0.0171x elapsed=0:02:47.91    \nframe=  347 fps=2.1 q=50.8 size=     768KiB time=00:00:02.87 bitrate=2188.5kbits/s speed=0.0171x elapsed=0:02:48.43    \nframe=  348 fps=2.1 q=50.8 size=     768KiB time=00:00:02.88 bitrate=2182.1kbits/s speed=0.0171x elapsed=0:02:48.96    \nframe=  348 fps=2.1 q=50.8 size=     768KiB time=00:00:02.88 bitrate=2182.1kbits/s speed=0.017x elapsed=0:02:49.48    \nframe=  348 fps=2.0 q=50.8 size=     768KiB time=00:00:02.88 bitrate=2182.1kbits/s speed=0.017x elapsed=0:02:49.99    \nframe=  349 fps=2.0 q=42.7 size=     768KiB time=00:00:02.89 bitrate=2175.8kbits/s speed=0.017x elapsed=0:02:50.51    \nframe=  350 fps=2.0 q=49.1 size=     768KiB time=00:00:02.90 bitrate=2169.6kbits/s speed=0.017x elapsed=0:02:51.02    \nframe=  352 fps=2.1 q=50.7 size=     768KiB time=00:00:02.91 bitrate=2157.2kbits/s speed=0.017x elapsed=0:02:51.55    \nframe=  352 fps=2.0 q=50.7 size=     768KiB time=00:00:02.91 bitrate=2157.2kbits/s speed=0.0169x elapsed=0:02:52.07    \nframe=  352 fps=2.0 q=50.7 size=     768KiB time=00:00:02.91 bitrate=2157.2kbits/s speed=0.0169x elapsed=0:02:52.59    \nframe=  353 fps=2.0 q=41.8 size=     768KiB time=00:00:02.92 bitrate=2151.0kbits/s speed=0.0169x elapsed=0:02:53.10    \nframe=  354 fps=2.0 q=48.2 size=     768KiB time=00:00:02.93 bitrate=2144.9kbits/s speed=0.0169x elapsed=0:02:53.62    \nframe=  356 fps=2.0 q=50.8 size=     768KiB time=00:00:02.95 bitrate=2132.8kbits/s speed=0.0169x elapsed=0:02:54.14    \nframe=  356 fps=2.0 q=50.8 size=     768KiB time=00:00:02.95 bitrate=2132.8kbits/s speed=0.0169x elapsed=0:02:54.67    \nframe=  357 fps=2.0 q=43.2 size=     768KiB time=00:00:02.95 bitrate=2126.8kbits/s speed=0.0169x elapsed=0:02:55.18    \nframe=  358 fps=2.0 q=49.8 size=     768KiB time=00:00:02.96 bitrate=2120.8kbits/s speed=0.0169x elapsed=0:02:55.70    \nframe=  358 fps=2.0 q=49.8 size=     768KiB time=00:00:02.96 bitrate=2120.8kbits/s speed=0.0168x elapsed=0:02:56.22    \nframe=  360 fps=2.0 q=41.9 size=     768KiB time=00:00:02.98 bitrate=2109.0kbits/s speed=0.0169x elapsed=0:02:56.75    \nframe=  360 fps=2.0 q=41.9 size=     768KiB time=00:00:02.98 bitrate=2109.0kbits/s speed=0.0168x elapsed=0:02:57.26    \nframe=  361 fps=2.0 q=49.0 size=     768KiB time=00:00:02.99 bitrate=2103.1kbits/s speed=0.0168x elapsed=0:02:57.79    \nframe=  362 fps=2.0 q=51.0 size=     768KiB time=00:00:03.00 bitrate=2097.3kbits/s speed=0.0168x elapsed=0:02:58.31    \nframe=  363 fps=2.0 q=50.7 size=     768KiB time=00:00:03.00 bitrate=2091.5kbits/s speed=0.0168x elapsed=0:02:58.83    \nframe=  363 fps=2.0 q=50.7 size=     768KiB time=00:00:03.00 bitrate=2091.5kbits/s speed=0.0168x elapsed=0:02:59.35    \nframe=  364 fps=2.0 q=42.6 size=     768KiB time=00:00:03.01 bitrate=2085.7kbits/s speed=0.0168x elapsed=0:02:59.89    \nframe=  365 fps=2.0 q=49.1 size=     768KiB time=00:00:03.02 bitrate=2079.9kbits/s speed=0.0168x elapsed=0:03:00.42    \nframe=  366 fps=2.0 q=50.7 size=     768KiB time=00:00:03.03 bitrate=2074.2kbits/s speed=0.0168x elapsed=0:03:00.93    \nframe=  367 fps=2.0 q=50.7 size=     768KiB time=00:00:03.04 bitrate=2068.5kbits/s speed=0.0168x elapsed=0:03:01.45    \nframe=  368 fps=2.0 q=43.2 size=     768KiB time=00:00:03.05 bitrate=2062.9kbits/s speed=0.0168x elapsed=0:03:01.97    \nframe=  368 fps=2.0 q=43.2 size=     768KiB time=00:00:03.05 bitrate=2062.9kbits/s speed=0.0167x elapsed=0:03:02.51    \nframe=  369 fps=2.0 q=49.0 size=     768KiB time=00:00:03.05 bitrate=2057.3kbits/s speed=0.0167x elapsed=0:03:03.04    \nframe=  370 fps=2.0 q=50.9 size=     768KiB time=00:00:03.06 bitrate=2051.7kbits/s speed=0.0167x elapsed=0:03:03.55    \nframe=  371 fps=2.0 q=50.8 size=     768KiB time=00:00:03.07 bitrate=2046.1kbits/s speed=0.0167x elapsed=0:03:04.07    \nframe=  372 fps=2.0 q=41.9 size=     768KiB time=00:00:03.08 bitrate=2040.6kbits/s speed=0.0167x elapsed=0:03:04.58    \nframe=  373 fps=2.0 q=49.0 size=     768KiB time=00:00:03.09 bitrate=2035.1kbits/s speed=0.0167x elapsed=0:03:05.11    \nframe=  374 fps=2.0 q=50.8 size=     768KiB time=00:00:03.10 bitrate=2029.6kbits/s speed=0.0167x elapsed=0:03:05.63    \nframe=  374 fps=2.0 q=50.8 size=     768KiB time=00:00:03.10 bitrate=2029.6kbits/s speed=0.0167x elapsed=0:03:06.16    \nframe=  375 fps=2.0 q=50.9 size=    1024KiB time=00:00:03.10 bitrate=2698.9kbits/s speed=0.0166x elapsed=0:03:06.71    \nframe=  375 fps=2.0 q=50.9 size=    1024KiB time=00:00:03.10 bitrate=2698.9kbits/s speed=0.0166x elapsed=0:03:07.27    \nframe=  375 fps=2.0 q=50.9 size=    1024KiB time=00:00:03.10 bitrate=2698.9kbits/s speed=0.0165x elapsed=0:03:07.82    \nframe=  375 fps=2.0 q=50.9 size=    1024KiB time=00:00:03.10 bitrate=2698.9kbits/s speed=0.0165x elapsed=0:03:08.36    \nframe=  376 fps=2.0 q=42.6 size=    1024KiB time=00:00:03.11 bitrate=2691.6kbits/s speed=0.0165x elapsed=0:03:08.92    \nframe=  376 fps=2.0 q=42.6 size=    1024KiB time=00:00:03.11 bitrate=2691.6kbits/s speed=0.0165x elapsed=0:03:09.44    \nframe=  376 fps=2.0 q=42.6 size=    1024KiB time=00:00:03.11 bitrate=2691.6kbits/s speed=0.0164x elapsed=0:03:09.98    \nframe=  376 fps=2.0 q=42.6 size=    1024KiB time=00:00:03.11 bitrate=2691.6kbits/s speed=0.0164x elapsed=0:03:10.52    \nframe=  376 fps=2.0 q=42.6 size=    1024KiB time=00:00:03.11 bitrate=2691.6kbits/s speed=0.0163x elapsed=0:03:11.04    \nframe=  376 fps=2.0 q=42.6 size=    1024KiB time=00:00:03.11 bitrate=2691.6kbits/s speed=0.0163x elapsed=0:03:11.60    \nframe=  377 fps=2.0 q=49.2 size=    1024KiB time=00:00:03.12 bitrate=2684.5kbits/s speed=0.0163x elapsed=0:03:12.14    \nframe=  377 fps=2.0 q=49.2 size=    1024KiB time=00:00:03.12 bitrate=2684.5kbits/s speed=0.0162x elapsed=0:03:12.66    \nframe=  377 fps=2.0 q=49.2 size=    1024KiB time=00:00:03.12 bitrate=2684.5kbits/s speed=0.0162x elapsed=0:03:13.18    \nframe=  377 fps=1.9 q=49.2 size=    1024KiB time=00:00:03.12 bitrate=2684.5kbits/s speed=0.0161x elapsed=0:03:13.71    \nframe=  377 fps=1.9 q=49.2 size=    1024KiB time=00:00:03.12 bitrate=2684.5kbits/s speed=0.0161x elapsed=0:03:14.23    \nframe=  378 fps=1.9 q=50.8 size=    1024KiB time=00:00:03.13 bitrate=2677.3kbits/s speed=0.0161x elapsed=0:03:14.75    \nframe=  378 fps=1.9 q=50.8 size=    1024KiB time=00:00:03.13 bitrate=2677.3kbits/s speed=0.016x elapsed=0:03:15.26    \nframe=  378 fps=1.9 q=50.8 size=    1024KiB time=00:00:03.13 bitrate=2677.3kbits/s speed=0.016x elapsed=0:03:15.80    \nframe=  378 fps=1.9 q=50.8 size=    1024KiB time=00:00:03.13 bitrate=2677.3kbits/s speed=0.016x elapsed=0:03:16.32    \nframe=  378 fps=1.9 q=50.8 size=    1024KiB time=00:00:03.13 bitrate=2677.3kbits/s speed=0.0159x elapsed=0:03:16.86    \nframe=  379 fps=1.9 q=50.8 size=    1024KiB time=00:00:03.14 bitrate=2670.2kbits/s speed=0.0159x elapsed=0:03:17.40    \nframe=  379 fps=1.9 q=50.8 size=    1024KiB time=00:00:03.14 bitrate=2670.2kbits/s speed=0.0159x elapsed=0:03:17.97    \nframe=  380 fps=1.9 q=44.1 size=    1024KiB time=00:00:03.15 bitrate=2663.2kbits/s speed=0.0159x elapsed=0:03:18.49    \nframe=  380 fps=1.9 q=44.1 size=    1024KiB time=00:00:03.15 bitrate=2663.2kbits/s speed=0.0158x elapsed=0:03:19.01    \nframe=  380 fps=1.9 q=44.1 size=    1024KiB time=00:00:03.15 bitrate=2663.2kbits/s speed=0.0158x elapsed=0:03:19.53    \nframe=  381 fps=1.9 q=49.2 size=    1024KiB time=00:00:03.15 bitrate=2656.1kbits/s speed=0.0158x elapsed=0:03:20.04    \nframe=  381 fps=1.9 q=49.2 size=    1024KiB time=00:00:03.15 bitrate=2656.1kbits/s speed=0.0157x elapsed=0:03:20.55    \nframe=  383 fps=1.9 q=50.8 size=    1024KiB time=00:00:03.17 bitrate=2642.2kbits/s speed=0.0158x elapsed=0:03:21.07    \nframe=  383 fps=1.9 q=50.8 size=    1024KiB time=00:00:03.17 bitrate=2642.2kbits/s speed=0.0157x elapsed=0:03:21.59    \nframe=  383 fps=1.9 q=50.8 size=    1024KiB time=00:00:03.17 bitrate=2642.2kbits/s speed=0.0157x elapsed=0:03:22.11    \nframe=  384 fps=1.9 q=44.8 size=    1024KiB time=00:00:03.18 bitrate=2635.3kbits/s speed=0.0157x elapsed=0:03:22.62    \nframe=  385 fps=1.9 q=49.2 size=    1024KiB time=00:00:03.19 bitrate=2628.4kbits/s speed=0.0157x elapsed=0:03:23.13    \nframe=  386 fps=1.9 q=50.9 size=    1024KiB time=00:00:03.20 bitrate=2621.6kbits/s speed=0.0157x elapsed=0:03:23.66    \nframe=  387 fps=1.9 q=50.8 size=    1024KiB time=00:00:03.20 bitrate=2614.7kbits/s speed=0.0157x elapsed=0:03:24.17    \nframe=  387 fps=1.9 q=50.8 size=    1024KiB time=00:00:03.20 bitrate=2614.7kbits/s speed=0.0157x elapsed=0:03:24.69    \nframe=  388 fps=1.9 q=44.6 size=    1024KiB time=00:00:03.21 bitrate=2608.0kbits/s speed=0.0157x elapsed=0:03:25.20    \nframe=  388 fps=1.9 q=44.6 size=    1024KiB time=00:00:03.21 bitrate=2608.0kbits/s speed=0.0156x elapsed=0:03:25.74    \nframe=  389 fps=1.9 q=49.3 size=    1024KiB time=00:00:03.22 bitrate=2601.2kbits/s speed=0.0156x elapsed=0:03:26.24    \nframe=  391 fps=1.9 q=50.9 size=    1024KiB time=00:00:03.24 bitrate=2587.9kbits/s speed=0.0157x elapsed=0:03:26.76    \nframe=  391 fps=1.9 q=50.9 size=    1024KiB time=00:00:03.24 bitrate=2587.9kbits/s speed=0.0156x elapsed=0:03:27.28    \nframe=  392 fps=1.9 q=44.7 size=    1024KiB time=00:00:03.25 bitrate=2581.2kbits/s speed=0.0156x elapsed=0:03:27.80    \nframe=  392 fps=1.9 q=44.7 size=    1024KiB time=00:00:03.25 bitrate=2581.2kbits/s speed=0.0156x elapsed=0:03:28.31    \nframe=  393 fps=1.9 q=49.4 size=    1024KiB time=00:00:03.25 bitrate=2574.6kbits/s speed=0.0156x elapsed=0:03:28.82    \nframe=  395 fps=1.9 q=51.0 size=    1024KiB time=00:00:03.27 bitrate=2561.5kbits/s speed=0.0156x elapsed=0:03:29.35    \nframe=  395 fps=1.9 q=51.0 size=    1024KiB time=00:00:03.27 bitrate=2561.5kbits/s speed=0.0156x elapsed=0:03:29.87    \nframe=  396 fps=1.9 q=44.2 size=    1024KiB time=00:00:03.28 bitrate=2555.0kbits/s speed=0.0156x elapsed=0:03:30.39    \nframe=  396 fps=1.9 q=44.2 size=    1024KiB time=00:00:03.28 bitrate=2555.0kbits/s speed=0.0156x elapsed=0:03:30.90    \nframe=  397 fps=1.9 q=50.3 size=    1024KiB time=00:00:03.29 bitrate=2548.5kbits/s speed=0.0156x elapsed=0:03:31.42    \nframe=  399 fps=1.9 q=43.4 size=    1024KiB time=00:00:03.30 bitrate=2535.7kbits/s speed=0.0156x elapsed=0:03:31.94    \nframe=  400 fps=1.9 q=50.1 size=    1024KiB time=00:00:03.31 bitrate=2529.3kbits/s speed=0.0156x elapsed=0:03:32.44    \nframe=  400 fps=1.9 q=50.1 size=    1024KiB time=00:00:03.31 bitrate=2529.3kbits/s speed=0.0156x elapsed=0:03:32.96    \nframe=  401 fps=1.9 q=50.9 size=    1024KiB time=00:00:03.32 bitrate=2523.0kbits/s speed=0.0156x elapsed=0:03:33.47    \nframe=  402 fps=1.9 q=44.2 size=    1024KiB time=00:00:03.33 bitrate=2516.7kbits/s speed=0.0156x elapsed=0:03:34.02    \nframe=  403 fps=1.9 q=50.9 size=    1024KiB time=00:00:03.34 bitrate=2510.4kbits/s speed=0.0156x elapsed=0:03:34.54    \nframe=  403 fps=1.9 q=50.9 size=    1024KiB time=00:00:03.34 bitrate=2510.4kbits/s speed=0.0155x elapsed=0:03:35.07    \nframe=  404 fps=1.9 q=43.7 size=    1024KiB time=00:00:03.35 bitrate=2504.2kbits/s speed=0.0155x elapsed=0:03:35.60    \nframe=  404 fps=1.9 q=43.7 size=    1024KiB time=00:00:03.35 bitrate=2504.2kbits/s speed=0.0155x elapsed=0:03:36.12    \nframe=  405 fps=1.9 q=49.8 size=    1024KiB time=00:00:03.35 bitrate=2498.0kbits/s speed=0.0155x elapsed=0:03:36.63    \nframe=  406 fps=1.9 q=50.9 size=    1024KiB time=00:00:03.36 bitrate=2491.8kbits/s speed=0.0155x elapsed=0:03:37.15    \nframe=  406 fps=1.9 q=50.9 size=    1024KiB time=00:00:03.36 bitrate=2491.8kbits/s speed=0.0155x elapsed=0:03:37.68    \nframe=  407 fps=1.9 q=43.1 size=    1024KiB time=00:00:03.37 bitrate=2485.6kbits/s speed=0.0155x elapsed=0:03:38.19    \nframe=  408 fps=1.9 q=49.8 size=    1024KiB time=00:00:03.38 bitrate=2479.5kbits/s speed=0.0155x elapsed=0:03:38.71    \nframe=  408 fps=1.9 q=49.8 size=    1024KiB time=00:00:03.38 bitrate=2479.5kbits/s speed=0.0154x elapsed=0:03:39.24    \nframe=  410 fps=1.9 q=51.0 size=    1024KiB time=00:00:03.40 bitrate=2467.3kbits/s speed=0.0155x elapsed=0:03:39.75    \nframe=  411 fps=1.9 q=43.3 size=    1024KiB time=00:00:03.40 bitrate=2461.3kbits/s speed=0.0155x elapsed=0:03:40.26    \nframe=  412 fps=1.9 q=50.2 size=    1024KiB time=00:00:03.41 bitrate=2455.3kbits/s speed=0.0155x elapsed=0:03:40.77    \nframe=  412 fps=1.9 q=50.2 size=    1024KiB time=00:00:03.41 bitrate=2455.3kbits/s speed=0.0154x elapsed=0:03:41.30    \nframe=  414 fps=1.9 q=51.0 size=    1024KiB time=00:00:03.43 bitrate=2443.4kbits/s speed=0.0155x elapsed=0:03:41.82    \nframe=  414 fps=1.9 q=51.0 size=    1024KiB time=00:00:03.43 bitrate=2443.4kbits/s speed=0.0154x elapsed=0:03:42.33    \nframe=  414 fps=1.9 q=51.0 size=    1024KiB time=00:00:03.43 bitrate=2443.4kbits/s speed=0.0154x elapsed=0:03:42.86    \nframe=  415 fps=1.9 q=43.7 size=    1024KiB time=00:00:03.44 bitrate=2437.5kbits/s speed=0.0154x elapsed=0:03:43.39    \nframe=  416 fps=1.9 q=50.8 size=    1024KiB time=00:00:03.45 bitrate=2431.6kbits/s speed=0.0154x elapsed=0:03:43.90    \nframe=  416 fps=1.9 q=50.8 size=    1024KiB time=00:00:03.45 bitrate=2431.6kbits/s speed=0.0154x elapsed=0:03:44.41    \nframe=  419 fps=1.9 q=51.0 size=    1024KiB time=00:00:03.47 bitrate=2414.1kbits/s speed=0.0154x elapsed=0:03:44.93    \nframe=  419 fps=1.9 q=51.0 size=    1024KiB time=00:00:03.47 bitrate=2414.1kbits/s speed=0.0154x elapsed=0:03:45.47    \nframe=  419 fps=1.9 q=51.0 size=    1024KiB time=00:00:03.47 bitrate=2414.1kbits/s speed=0.0154x elapsed=0:03:45.98    \nframe=  420 fps=1.9 q=44.1 size=    1024KiB time=00:00:03.48 bitrate=2408.3kbits/s speed=0.0154x elapsed=0:03:46.50    \nframe=  421 fps=1.9 q=50.4 size=    1024KiB time=00:00:03.49 bitrate=2402.6kbits/s speed=0.0154x elapsed=0:03:47.02    \nframe=  422 fps=1.9 q=51.0 size=    1024KiB time=00:00:03.50 bitrate=2396.8kbits/s speed=0.0154x elapsed=0:03:47.55    \nframe=  423 fps=1.9 q=43.0 size=    1024KiB time=00:00:03.50 bitrate=2391.2kbits/s speed=0.0154x elapsed=0:03:48.08    \nframe=  423 fps=1.9 q=43.0 size=    1024KiB time=00:00:03.50 bitrate=2391.2kbits/s speed=0.0153x elapsed=0:03:48.60    \nframe=  425 fps=1.9 q=51.0 size=    1024KiB time=00:00:03.52 bitrate=2379.8kbits/s speed=0.0154x elapsed=0:03:49.10    \nframe=  425 fps=1.9 q=51.0 size=    1024KiB time=00:00:03.52 bitrate=2379.8kbits/s speed=0.0154x elapsed=0:03:49.62    \nframe=  426 fps=1.9 q=43.9 size=    1024KiB time=00:00:03.53 bitrate=2374.2kbits/s speed=0.0154x elapsed=0:03:50.13    \nframe=  426 fps=1.8 q=43.9 size=    1024KiB time=00:00:03.53 bitrate=2374.2kbits/s speed=0.0153x elapsed=0:03:50.65    \nframe=  427 fps=1.8 q=44.0 size=    1024KiB time=00:00:03.54 bitrate=2368.6kbits/s speed=0.0153x elapsed=0:03:51.17    \nframe=  427 fps=1.8 q=44.0 size=    1024KiB time=00:00:03.54 bitrate=2368.6kbits/s speed=0.0153x elapsed=0:03:51.69    \nframe=  429 fps=1.8 q=50.9 size=    1024KiB time=00:00:03.55 bitrate=2357.6kbits/s speed=0.0153x elapsed=0:03:52.22    \nframe=  430 fps=1.8 q=51.0 size=    1024KiB time=00:00:03.56 bitrate=2352.0kbits/s speed=0.0153x elapsed=0:03:52.75    \nframe=  430 fps=1.8 q=51.0 size=    1024KiB time=00:00:03.56 bitrate=2352.0kbits/s speed=0.0153x elapsed=0:03:53.26    \nframe=  431 fps=1.8 q=42.8 size=    1024KiB time=00:00:03.57 bitrate=2346.6kbits/s speed=0.0153x elapsed=0:03:53.78    \nframe=  431 fps=1.8 q=42.8 size=    1024KiB time=00:00:03.57 bitrate=2346.6kbits/s speed=0.0153x elapsed=0:03:54.29    \nframe=  433 fps=1.8 q=51.0 size=    1024KiB time=00:00:03.59 bitrate=2335.7kbits/s speed=0.0153x elapsed=0:03:54.82    \nframe=  434 fps=1.8 q=51.0 size=    1024KiB time=00:00:03.60 bitrate=2330.3kbits/s speed=0.0153x elapsed=0:03:55.34    \nframe=  434 fps=1.8 q=51.0 size=    1024KiB time=00:00:03.60 bitrate=2330.3kbits/s speed=0.0153x elapsed=0:03:55.85    \nframe=  435 fps=1.8 q=43.7 size=    1024KiB time=00:00:03.60 bitrate=2324.9kbits/s speed=0.0153x elapsed=0:03:56.37    \nframe=  435 fps=1.8 q=43.7 size=    1024KiB time=00:00:03.60 bitrate=2324.9kbits/s speed=0.0152x elapsed=0:03:56.88    \nframe=  436 fps=1.8 q=49.3 size=    1024KiB time=00:00:03.61 bitrate=2319.5kbits/s speed=0.0152x elapsed=0:03:57.40    \nframe=  437 fps=1.8 q=51.0 size=    1024KiB time=00:00:03.62 bitrate=2314.2kbits/s speed=0.0152x elapsed=0:03:57.92    \nframe=  438 fps=1.8 q=42.3 size=    1024KiB time=00:00:03.63 bitrate=2308.9kbits/s speed=0.0152x elapsed=0:03:58.43    \nframe=  439 fps=1.8 q=50.1 size=    1024KiB time=00:00:03.64 bitrate=2303.6kbits/s speed=0.0152x elapsed=0:03:58.96    \nframe=  440 fps=1.8 q=51.0 size=    1024KiB time=00:00:03.65 bitrate=2298.3kbits/s speed=0.0152x elapsed=0:03:59.48    \nframe=  440 fps=1.8 q=51.0 size=    1024KiB time=00:00:03.65 bitrate=2298.3kbits/s speed=0.0152x elapsed=0:03:59.99    \nframe=  442 fps=1.8 q=50.9 size=    1024KiB time=00:00:03.66 bitrate=2287.9kbits/s speed=0.0152x elapsed=0:04:00.52    \nframe=  442 fps=1.8 q=50.9 size=    1024KiB time=00:00:03.66 bitrate=2287.9kbits/s speed=0.0152x elapsed=0:04:01.02    \nframe=  443 fps=1.8 q=42.6 size=    1024KiB time=00:00:03.67 bitrate=2282.7kbits/s speed=0.0152x elapsed=0:04:01.54    \nframe=  443 fps=1.8 q=42.6 size=    1024KiB time=00:00:03.67 bitrate=2282.7kbits/s speed=0.0152x elapsed=0:04:02.07    \nframe=  444 fps=1.8 q=49.4 size=    1024KiB time=00:00:03.68 bitrate=2277.5kbits/s speed=0.0152x elapsed=0:04:02.61    \nframe=  446 fps=1.8 q=50.9 size=    1024KiB time=00:00:03.70 bitrate=2267.3kbits/s speed=0.0152x elapsed=0:04:03.13    \nframe=  446 fps=1.8 q=50.9 size=    1024KiB time=00:00:03.70 bitrate=2267.3kbits/s speed=0.0152x elapsed=0:04:03.64    \nframe=  446 fps=1.8 q=50.9 size=    1024KiB time=00:00:03.70 bitrate=2267.3kbits/s speed=0.0152x elapsed=0:04:04.17    \nframe=  447 fps=1.8 q=41.8 size=    1024KiB time=00:00:03.70 bitrate=2262.2kbits/s speed=0.0152x elapsed=0:04:04.70    \nframe=  448 fps=1.8 q=50.1 size=    1024KiB time=00:00:03.71 bitrate=2257.1kbits/s speed=0.0152x elapsed=0:04:05.21    \nframe=  449 fps=1.8 q=50.9 size=    1024KiB time=00:00:03.72 bitrate=2252.1kbits/s speed=0.0152x elapsed=0:04:05.73    \nframe=  449 fps=1.8 q=50.9 size=    1024KiB time=00:00:03.72 bitrate=2252.1kbits/s speed=0.0151x elapsed=0:04:06.26    \nframe=  449 fps=1.8 q=50.9 size=    1024KiB time=00:00:03.72 bitrate=2252.1kbits/s speed=0.0151x elapsed=0:04:06.78    \nframe=  451 fps=1.8 q=50.7 size=    1024KiB time=00:00:03.74 bitrate=2242.0kbits/s speed=0.0151x elapsed=0:04:07.30    \nframe=  451 fps=1.8 q=50.7 size=    1024KiB time=00:00:03.74 bitrate=2242.0kbits/s speed=0.0151x elapsed=0:04:07.83    \nframe=  453 fps=1.8 q=51.0 size=    1024KiB time=00:00:03.75 bitrate=2232.1kbits/s speed=0.0151x elapsed=0:04:08.34    \nframe=  453 fps=1.8 q=51.0 size=    1024KiB time=00:00:03.75 bitrate=2232.1kbits/s speed=0.0151x elapsed=0:04:08.86    \nframe=  454 fps=1.8 q=51.0 size=    1024KiB time=00:00:03.76 bitrate=2227.2kbits/s speed=0.0151x elapsed=0:04:09.37    \nframe=  454 fps=1.8 q=51.0 size=    1024KiB time=00:00:03.76 bitrate=2227.2kbits/s speed=0.0151x elapsed=0:04:09.89    \nframe=  455 fps=1.8 q=43.0 size=    1024KiB time=00:00:03.77 bitrate=2222.2kbits/s speed=0.0151x elapsed=0:04:10.41    \nframe=  456 fps=1.8 q=50.1 size=    1024KiB time=00:00:03.78 bitrate=2217.3kbits/s speed=0.0151x elapsed=0:04:10.94    \nframe=  456 fps=1.8 q=50.1 size=    1024KiB time=00:00:03.78 bitrate=2217.3kbits/s speed=0.015x elapsed=0:04:11.44    \nframe=  457 fps=1.8 q=51.0 size=    1024KiB time=00:00:03.79 bitrate=2212.5kbits/s speed=0.015x elapsed=0:04:11.97    \nframe=  459 fps=1.8 q=49.9 size=    1024KiB time=00:00:03.80 bitrate=2202.8kbits/s speed=0.0151x elapsed=0:04:12.49    \nframe=  460 fps=1.8 q=51.0 size=    1024KiB time=00:00:03.81 bitrate=2198.0kbits/s speed=0.0151x elapsed=0:04:13.02    \nframe=  460 fps=1.8 q=51.0 size=    1024KiB time=00:00:03.81 bitrate=2198.0kbits/s speed=0.0151x elapsed=0:04:13.52    \nframe=  461 fps=1.8 q=42.3 size=    1024KiB time=00:00:03.82 bitrate=2193.2kbits/s speed=0.0151x elapsed=0:04:14.04    \nframe=  462 fps=1.8 q=49.4 size=    1024KiB time=00:00:03.83 bitrate=2188.4kbits/s speed=0.0151x elapsed=0:04:14.57    \nframe=  463 fps=1.8 q=50.9 size=    1024KiB time=00:00:03.83 bitrate=2188.4kbits/s speed=0.015x elapsed=0:04:15.09    \nframe=  464 fps=1.8 q=50.9 size=    1024KiB time=00:00:03.85 bitrate=2179.0kbits/s speed=0.0151x elapsed=0:04:15.61    \nframe=  465 fps=1.8 q=41.8 size=    1024KiB time=00:00:03.85 bitrate=2174.2kbits/s speed=0.0151x elapsed=0:04:16.14    \nframe=  465 fps=1.8 q=41.8 size=    1024KiB time=00:00:03.85 bitrate=2174.2kbits/s speed=0.015x elapsed=0:04:16.66    \nframe=  467 fps=1.8 q=51.0 size=    1024KiB time=00:00:03.87 bitrate=2164.9kbits/s speed=0.0151x elapsed=0:04:17.17    \nframe=  468 fps=1.8 q=50.9 size=    1024KiB time=00:00:03.88 bitrate=2160.2kbits/s speed=0.0151x elapsed=0:04:17.69    \nframe=  469 fps=1.8 q=41.7 size=    1024KiB time=00:00:03.89 bitrate=2155.6kbits/s speed=0.0151x elapsed=0:04:18.21    \nframe=  469 fps=1.8 q=41.7 size=    1024KiB time=00:00:03.89 bitrate=2155.6kbits/s speed=0.015x elapsed=0:04:18.73    \nframe=  469 fps=1.8 q=41.7 size=    1024KiB time=00:00:03.89 bitrate=2155.6kbits/s speed=0.015x elapsed=0:04:19.25    \nframe=  470 fps=1.8 q=49.4 size=    1024KiB time=00:00:03.90 bitrate=2151.0kbits/s speed=0.015x elapsed=0:04:19.76    \nframe=  471 fps=1.8 q=50.9 size=    1024KiB time=00:00:03.90 bitrate=2146.4kbits/s speed=0.015x elapsed=0:04:20.28    \nframe=  472 fps=1.8 q=50.9 size=    1024KiB time=00:00:03.91 bitrate=2141.9kbits/s speed=0.015x elapsed=0:04:20.81    \nframe=  473 fps=1.8 q=41.8 size=    1024KiB time=00:00:03.92 bitrate=2137.3kbits/s speed=0.015x elapsed=0:04:21.34    \nframe=  473 fps=1.8 q=41.8 size=    1024KiB time=00:00:03.92 bitrate=2137.3kbits/s speed=0.015x elapsed=0:04:21.86    \nframe=  474 fps=1.8 q=49.4 size=    1280KiB time=00:00:03.93 bitrate=2666.0kbits/s speed=0.015x elapsed=0:04:22.38    \nframe=  475 fps=1.8 q=50.8 size=    1280KiB time=00:00:03.94 bitrate=2660.3kbits/s speed=0.015x elapsed=0:04:22.91    \nframe=  477 fps=1.8 q=50.9 size=    1280KiB time=00:00:03.95 bitrate=2649.1kbits/s speed=0.015x elapsed=0:04:23.42    \nframe=  477 fps=1.8 q=50.9 size=    1280KiB time=00:00:03.95 bitrate=2649.1kbits/s speed=0.015x elapsed=0:04:23.94    \nframe=  478 fps=1.8 q=42.8 size=    1280KiB time=00:00:03.96 bitrate=2643.6kbits/s speed=0.015x elapsed=0:04:24.46    \nframe=  480 fps=1.8 q=51.0 size=    1280KiB time=00:00:03.98 bitrate=2632.5kbits/s speed=0.015x elapsed=0:04:24.97    \nframe=  480 fps=1.8 q=51.0 size=    1280KiB time=00:00:03.98 bitrate=2632.5kbits/s speed=0.015x elapsed=0:04:25.50    \nframe=  481 fps=1.8 q=42.5 size=    1280KiB time=00:00:03.99 bitrate=2627.0kbits/s speed=0.015x elapsed=0:04:26.02    \nframe=  483 fps=1.8 q=51.0 size=    1280KiB time=00:00:04.00 bitrate=2616.1kbits/s speed=0.015x elapsed=0:04:26.52    \nframe=  484 fps=1.8 q=51.0 size=    1280KiB time=00:00:04.01 bitrate=2610.7kbits/s speed=0.015x elapsed=0:04:27.04    \nframe=  484 fps=1.8 q=51.0 size=    1280KiB time=00:00:04.01 bitrate=2610.7kbits/s speed=0.015x elapsed=0:04:27.56    \nframe=  485 fps=1.8 q=42.5 size=    1280KiB time=00:00:04.02 bitrate=2605.2kbits/s speed=0.015x elapsed=0:04:28.07    \nframe=  486 fps=1.8 q=50.5 size=    1280KiB time=00:00:04.03 bitrate=2599.9kbits/s speed=0.015x elapsed=0:04:28.59    \nframe=  487 fps=1.8 q=51.0 size=    1280KiB time=00:00:04.04 bitrate=2594.5kbits/s speed=0.015x elapsed=0:04:29.10    \nframe=  488 fps=1.8 q=51.0 size=    1280KiB time=00:00:04.05 bitrate=2589.2kbits/s speed=0.015x elapsed=0:04:29.62    \nframe=  489 fps=1.8 q=42.8 size=    1280KiB time=00:00:04.05 bitrate=2583.8kbits/s speed=0.015x elapsed=0:04:30.16    \nframe=  490 fps=1.8 q=50.6 size=    1280KiB time=00:00:04.06 bitrate=2578.6kbits/s speed=0.015x elapsed=0:04:30.68    \nframe=  492 fps=1.8 q=51.0 size=    1280KiB time=00:00:04.08 bitrate=2568.0kbits/s speed=0.0151x elapsed=0:04:31.20    \nframe=  492 fps=1.8 q=51.0 size=    1280KiB time=00:00:04.08 bitrate=2568.0kbits/s speed=0.015x elapsed=0:04:31.72    \nframe=  493 fps=1.8 q=42.4 size=    1280KiB time=00:00:04.09 bitrate=2562.8kbits/s speed=0.015x elapsed=0:04:32.22    \nframe=  494 fps=1.8 q=50.9 size=    1280KiB time=00:00:04.10 bitrate=2557.6kbits/s speed=0.015x elapsed=0:04:32.75    \nframe=  495 fps=1.8 q=51.0 size=    1280KiB time=00:00:04.10 bitrate=2552.4kbits/s speed=0.015x elapsed=0:04:33.27    \nframe=  496 fps=1.8 q=41.9 size=    1280KiB time=00:00:04.11 bitrate=2547.2kbits/s speed=0.015x elapsed=0:04:33.82    \nframe=  497 fps=1.8 q=50.7 size=    1280KiB time=00:00:04.11 bitrate=2547.2kbits/s speed=0.015x elapsed=0:04:34.34    \nframe=  498 fps=1.8 q=51.0 size=    1280KiB time=00:00:04.12 bitrate=2542.1kbits/s speed=0.015x elapsed=0:04:34.86    \nframe=  498 fps=1.8 q=51.0 size=    1280KiB time=00:00:04.13 bitrate=2537.0kbits/s speed=0.015x elapsed=0:04:35.38    \nframe=  499 fps=1.8 q=51.0 size=    1280KiB time=00:00:04.14 bitrate=2531.9kbits/s speed=0.015x elapsed=0:04:35.89    \nframe=  500 fps=1.8 q=51.0 size=    1280KiB time=00:00:04.15 bitrate=2526.8kbits/s speed=0.015x elapsed=0:04:36.43    \nframe=  500 fps=1.8 q=51.0 size=    1280KiB time=00:00:04.15 bitrate=2526.8kbits/s speed=0.015x elapsed=0:04:36.94    \nframe=  501 fps=1.8 q=42.0 size=    1280KiB time=00:00:04.15 bitrate=2521.7kbits/s speed=0.015x elapsed=0:04:37.46    \nframe=  502 fps=1.8 q=43.9 size=    1280KiB time=00:00:04.16 bitrate=2516.7kbits/s speed=0.015x elapsed=0:04:37.98    \nframe=  503 fps=1.8 q=50.0 size=    1280KiB time=00:00:04.17 bitrate=2511.6kbits/s speed=0.015x elapsed=0:04:38.50    \nframe=  504 fps=1.8 q=51.0 size=    1280KiB time=00:00:04.18 bitrate=2506.6kbits/s speed=0.015x elapsed=0:04:39.01    \nframe=  505 fps=1.8 q=40.8 size=    1280KiB time=00:00:04.19 bitrate=2501.7kbits/s speed=0.015x elapsed=0:04:39.52    \nframe=  506 fps=1.8 q=49.4 size=    1280KiB time=00:00:04.20 bitrate=2496.7kbits/s speed=0.015x elapsed=0:04:40.04    \nframe=  507 fps=1.8 q=50.9 size=    1280KiB time=00:00:04.20 bitrate=2491.7kbits/s speed=0.015x elapsed=0:04:40.55    \nframe=  508 fps=1.8 q=50.0 size=    1280KiB time=00:00:04.21 bitrate=2486.8kbits/s speed=0.015x elapsed=0:04:41.08    \nframe=  509 fps=1.8 q=41.5 size=    1280KiB time=00:00:04.22 bitrate=2481.9kbits/s speed=0.015x elapsed=0:04:41.58    \nframe=  510 fps=1.8 q=49.5 size=    1280KiB time=00:00:04.23 bitrate=2477.0kbits/s speed=0.015x elapsed=0:04:42.10    \nframe=  512 fps=1.8 q=50.9 size=    1280KiB time=00:00:04.25 bitrate=2467.3kbits/s speed=0.015x elapsed=0:04:42.62    \nframe=  513 fps=1.8 q=41.1 size=    1280KiB time=00:00:04.25 bitrate=2462.5kbits/s speed=0.015x elapsed=0:04:43.13    \nframe=  514 fps=1.8 q=49.4 size=    1280KiB time=00:00:04.26 bitrate=2457.7kbits/s speed=0.015x elapsed=0:04:43.66    \nframe=  516 fps=1.8 q=49.9 size=    1280KiB time=00:00:04.28 bitrate=2448.1kbits/s speed=0.0151x elapsed=0:04:44.16    \nframe=  517 fps=1.8 q=41.5 size=    1280KiB time=00:00:04.29 bitrate=2443.4kbits/s speed=0.0151x elapsed=0:04:44.69    \nframe=  517 fps=1.8 q=41.5 size=    1280KiB time=00:00:04.29 bitrate=2443.4kbits/s speed=0.015x elapsed=0:04:45.20    \nframe=  518 fps=1.8 q=49.8 size=    1280KiB time=00:00:04.30 bitrate=2438.6kbits/s speed=0.015x elapsed=0:04:45.71    \nframe=  519 fps=1.8 q=50.0 size=    1280KiB time=00:00:04.30 bitrate=2433.9kbits/s speed=0.0151x elapsed=0:04:46.24    \nframe=  520 fps=1.8 q=40.5 size=    1280KiB time=00:00:04.31 bitrate=2429.2kbits/s speed=0.0151x elapsed=0:04:46.75    \nframe=  521 fps=1.8 q=49.7 size=    1280KiB time=00:00:04.32 bitrate=2424.5kbits/s speed=0.0151x elapsed=0:04:47.26    \nframe=  523 fps=1.8 q=50.1 size=    1280KiB time=00:00:04.34 bitrate=2415.2kbits/s speed=0.0151x elapsed=0:04:47.78    \nframe=  524 fps=1.8 q=40.6 size=    1280KiB time=00:00:04.35 bitrate=2410.6kbits/s speed=0.0151x elapsed=0:04:48.29    \nframe=  526 fps=1.8 q=50.0 size=    1280KiB time=00:00:04.36 bitrate=2401.4kbits/s speed=0.0151x elapsed=0:04:48.80    \nframe=  527 fps=1.8 q=40.6 size=    1280KiB time=00:00:04.37 bitrate=2396.8kbits/s speed=0.0151x elapsed=0:04:49.33    \nframe=  530 fps=1.8 q=49.9 size=    1280KiB time=00:00:04.40 bitrate=2383.2kbits/s speed=0.0152x elapsed=0:04:49.84    \nframe=  530 fps=1.8 q=49.9 size=    1280KiB time=00:00:04.40 bitrate=2383.2kbits/s speed=0.0152x elapsed=0:04:50.35    \nframe=  532 fps=1.8 q=49.4 size=    1280KiB time=00:00:04.41 bitrate=2374.2kbits/s speed=0.0152x elapsed=0:04:50.87    \nframe=  533 fps=1.8 q=49.9 size=    1280KiB time=00:00:04.42 bitrate=2369.7kbits/s speed=0.0152x elapsed=0:04:51.38    \nframe=  535 fps=1.8 q=50.1 size=    1280KiB time=00:00:04.44 bitrate=2360.9kbits/s speed=0.0152x elapsed=0:04:51.90    \nframe=  537 fps=1.8 q=49.5 size=    1280KiB time=00:00:04.45 bitrate=2352.0kbits/s speed=0.0152x elapsed=0:04:52.42    \nframe=  539 fps=1.8 q=50.0 size=    1280KiB time=00:00:04.47 bitrate=2343.3kbits/s speed=0.0153x elapsed=0:04:52.94    \nframe=  541 fps=1.8 q=48.5 size=    1280KiB time=00:00:04.49 bitrate=2334.6kbits/s speed=0.0153x elapsed=0:04:53.45    \nframe=  543 fps=1.8 q=40.7 size=    1280KiB time=00:00:04.50 bitrate=2325.9kbits/s speed=0.0153x elapsed=0:04:53.97    \nframe=  544 fps=1.8 q=47.4 size=    1280KiB time=00:00:04.51 bitrate=2321.6kbits/s speed=0.0153x elapsed=0:04:54.47    \nframe=  546 fps=1.9 q=49.1 size=    1280KiB time=00:00:04.53 bitrate=2313.1kbits/s speed=0.0154x elapsed=0:04:55.00    \nframe=  548 fps=1.9 q=40.9 size=    1280KiB time=00:00:04.55 bitrate=2304.6kbits/s speed=0.0154x elapsed=0:04:55.51    \nframe=  549 fps=1.9 q=48.1 size=    1280KiB time=00:00:04.55 bitrate=2300.4kbits/s speed=0.0154x elapsed=0:04:56.03    \nframe=  552 fps=1.9 q=49.1 size=    1280KiB time=00:00:04.58 bitrate=2287.9kbits/s speed=0.0155x elapsed=0:04:56.54    \nframe=  553 fps=1.9 q=41.0 size=    1280KiB time=00:00:04.59 bitrate=2283.7kbits/s speed=0.0155x elapsed=0:04:57.06    \nframe=  555 fps=1.9 q=49.0 size=    1280KiB time=00:00:04.60 bitrate=2275.5kbits/s speed=0.0155x elapsed=0:04:57.58    \nframe=  557 fps=1.9 q=48.7 size=    1280KiB time=00:00:04.62 bitrate=2267.3kbits/s speed=0.0155x elapsed=0:04:58.09    \nframe=  559 fps=1.9 q=42.0 size=    1280KiB time=00:00:04.64 bitrate=2259.1kbits/s speed=0.0155x elapsed=0:04:58.60    \nframe=  560 fps=1.9 q=48.5 size=    1280KiB time=00:00:04.65 bitrate=2255.1kbits/s speed=0.0155x elapsed=0:04:59.12    \nframe=  563 fps=1.9 q=42.0 size=    1280KiB time=00:00:04.67 bitrate=2243.0kbits/s speed=0.0156x elapsed=0:04:59.64    \nframe=  564 fps=1.9 q=48.6 size=    1280KiB time=00:00:04.68 bitrate=2239.0kbits/s speed=0.0156x elapsed=0:05:00.16    \nframe=  566 fps=1.9 q=50.2 size=    1280KiB time=00:00:04.70 bitrate=2231.1kbits/s speed=0.0156x elapsed=0:05:00.68    \nframe=  569 fps=1.9 q=50.1 size=    1280KiB time=00:00:04.72 bitrate=2219.3kbits/s speed=0.0157x elapsed=0:05:01.21    \nframe=  571 fps=1.9 q=50.1 size=    1280KiB time=00:00:04.74 bitrate=2211.5kbits/s speed=0.0157x elapsed=0:05:01.72    \nframe=  573 fps=1.9 q=48.4 size=    1280KiB time=00:00:04.75 bitrate=2203.7kbits/s speed=0.0157x elapsed=0:05:02.23    \nframe=  574 fps=1.9 q=50.1 size=    1280KiB time=00:00:04.76 bitrate=2199.9kbits/s speed=0.0157x elapsed=0:05:02.75    \nframe=  576 fps=1.9 q=50.0 size=    1280KiB time=00:00:04.78 bitrate=2192.2kbits/s speed=0.0158x elapsed=0:05:03.26    \nframe=  578 fps=1.9 q=48.5 size=    1280KiB time=00:00:04.80 bitrate=2184.6kbits/s speed=0.0158x elapsed=0:05:03.78    \nframe=  581 fps=1.9 q=43.0 size=    1280KiB time=00:00:04.82 bitrate=2173.3kbits/s speed=0.0159x elapsed=0:05:04.30    \nframe=  582 fps=1.9 q=48.2 size=    1536KiB time=00:00:04.83 bitrate=2603.4kbits/s speed=0.0159x elapsed=0:05:04.81    \nframe=  585 fps=1.9 q=50.0 size=    1536KiB time=00:00:04.85 bitrate=2590.0kbits/s speed=0.0159x elapsed=0:05:05.32    \nframe=  587 fps=1.9 q=48.4 size=    1536KiB time=00:00:04.87 bitrate=2581.2kbits/s speed=0.0159x elapsed=0:05:05.84    \nframe=  590 fps=1.9 q=50.1 size=    1536KiB time=00:00:04.90 bitrate=2568.0kbits/s speed=0.016x elapsed=0:05:06.36    \nframe=  592 fps=1.9 q=48.2 size=    1536KiB time=00:00:04.91 bitrate=2559.3kbits/s speed=0.016x elapsed=0:05:06.87    \nframe=  594 fps=1.9 q=50.0 size=    1536KiB time=00:00:04.93 bitrate=2550.7kbits/s speed=0.016x elapsed=0:05:07.38    \nframe=  596 fps=1.9 q=47.0 size=    1536KiB time=00:00:04.95 bitrate=2542.1kbits/s speed=0.0161x elapsed=0:05:07.91    \nframe=  599 fps=1.9 q=50.1 size=    1536KiB time=00:00:04.97 bitrate=2529.3kbits/s speed=0.0161x elapsed=0:05:08.41    \n[mp4 @ 000002c4f6ed9bc0] Starting second pass: moving the moov atom to the beginning of the file\n[out#0/mp4 @ 000002c4f6ed9ac0] video:1554KiB audio:0KiB subtitle:0KiB other streams:0KiB global headers:2KiB muxing overhead: 0.690258%\nframe=  600 fps=1.9 q=50.1 Lsize=    1565KiB time=00:00:04.98 bitrate=2572.9kbits/s speed=0.0161x elapsed=0:05:08.58    \nx265 [info]: frame I:      3, Avg QP:43.25  kb/s: 15882.24\nx265 [info]: frame P:    154, Avg QP:42.02  kb/s: 6380.04 \nx265 [info]: frame B:    443, Avg QP:48.42  kb/s: 1118.68 \nx265 [info]: Weighted P-Frames: Y:0.0% UV:0.0%\n\nencoded 600 frames in 308.42s (1.95 fps), 2542.92 kb/s, Avg QP:46.75\n",
  "seconds": 308.67051434516907,
  "probe_out": {}
}